<?xml version="1.0" encoding="UTF-8"?>
<svg version="1.1" viewBox="0 0 2048 1482" width="587" height="425" xmlns="http://www.w3.org/2000/svg">
<path transform="translate(677,62)" d="m0 0h33l38 2 40 4 33 5 40 8 36 9 32 10 33 12 24 10 15 7 25 12 24 13 7 5 5-2 26-14 23-12 22-10 30-12 31-11 49-14 32-7 27-5 42-6 19-2 33-2h63l44 3 46 6 45 8 36 9 40 12 37 14 35 15 40 20 24 14 23 14 20 14 19 14 16 13 10 8 15 13 7 7 8 7 27 27 7 8 9 10 11 14 13 16 13 18 5 9-1 4-26 14-27 14-45 23-19 10-33 17-24 13-15 7-5-2-12-14-7-8-11-12-18-18-8-7-11-9-18-14-19-13-18-11-14-8-27-14-26-11-30-11-31-9-30-7-28-5-38-4-14-1h-49l-35 3-25 3-31 6-32 8-22 7-15 6-4 1 8 12 12 17 20 30 13 22 12 23 8 16 11 26 12 34 9 29 8 37 5 31 3 36 1 24v18l-2 36-2 19-7 43-11 44-14 41-11 26-17 34-14 24-11 18-20 28-13 17v2l25 9 19 6 29 7 32 6 30 4 26 2h56l33-3 29-4 30-6 35-9 29-10 29-12 23-11 19-10 20-12 22-15 13-10 14-11 10-9 8-7 18-18 7-8 9-11 10-11 6 2 19 9 22 12 29 15 52 27 23 12 31 16 8 6 1 5-9 14-12 16-11 14-9 10-9 11-7 7-7 8-19 19-8 7-15 14-7 6 2 25 5 36 13 94 16 116 9 62 1 9v11l-5 8-6 4-8 1-9-3-18-13-19-14-18-13-19-14-18-13-19-14-36-26-16-12-17-12-36-26-38-28-36-26-12-8-12 2-42 8-35 5-39 4-19 1h-74l-19-1-53-6-31-5-40-9-40-11-44-15-20-8-19-8-29-14-16-8-18-10-5 1-27 14-16 8-25 12-38 15-38 13-41 11-36 8-36 6-46 5-34 2h-62l-42-3-40-5-38-7-23-4h-6l-11 7-36 26-38 28-15 11-14 10-54 39-17 12-38 28-14 10-19 14-18 13-16 12-12 8-5 2h-11l-6-4-4-5-1-3v-11l8-59 18-129 15-104 6-46-1-4-8-8-8-7-14-12-22-22-7-8-12-14-13-15-10-13-13-18-13-19-10-16-12-21-9-16-13-28-11-27-12-36-7-26-6-29-5-35-2-20-1-17v-50l3-35 7-43 7-30 8-27 9-26 12-29 13-28 13-23 12-20 16-24 14-19 12-15 9-11 13-15 12-13 22-22 8-7 13-12 11-9 16-13 15-11 18-13 17-11 13-8 15-9 22-12 32-16 24-11 34-13 30-10 35-10 37-8 33-6 36-5 21-2zm2 215-33 2-36 4-29 5-30 7-30 9-25 9-28 12-16 8-23 12-24 15-34 25-15 13-17 16-8 8-7 8-11 12-7 9-10 13-10 15-10 17-15 29-11 28-8 26-6 30-2 16-1 14v34l3 30 6 31 8 27 10 25 12 25 10 17 16 24 10 13 11 13 11 12 13 14 8 7 12 11 14 11 16 12 24 16 15 9 26 14 31 14 27 10 25 8 40 10 30 5 35 4 18 1h47l29-2 34-4 39-8 29-8 27-9 8-4-1-5-10-13-13-19-11-16-13-21-17-32-11-24-12-30-11-33-10-38-7-39-4-40-1-16v-39l3-35 4-32 8-39 10-35 7-21 13-32 14-30 12-22 9-15 14-22 13-18 15-20v-3l-25-9-37-10-27-6-24-4-44-5-22-1zm380 160-8 8-11 14-9 13-12 19-12 21-10 21-10 26-8 30-4 21-2 15-1 13v36l3 29 5 26 8 28 8 20 11 24 13 24 12 18 12 17 11 12 3 4 4-1 8-10 10-12 12-17 9-15 10-18 10-21 9-24 7-24 6-29 3-30v-34l-3-31-6-29-8-27-10-25-7-15-11-21-11-18-10-14-14-18-4-5z" fill="#01A0DD"/>
<path transform="translate(677,62)" d="m0 0h33l38 2 40 4 33 5 40 8 36 9 32 10 33 12 24 10 15 7 25 12 24 13 6 4-5 5-13 9-24 16-15 11-17 13-16 13-14 12-13 12-6 5-4 5-6 5-6 7h-2l-2 4-12 12-7 8-9 10-5 6-2 3v-2l-11-3-21-7-38-10-29-6-39-5-19-2-22-1h-20l-33 2-36 4-29 5-30 7-30 9-25 9-28 12-16 8-23 12-24 15-34 25-15 13-17 16-7 7-7 8-11 12-7 9-10 13-10 15-10 17-15 29-11 28-8 26-6 30-2 16-1 14v34l3 30 6 31 8 27 10 25 12 25 10 17 16 24 10 13 11 13 11 12 12 13 8 7 12 11 14 11 16 12 24 16 15 9 26 14 31 14 27 10 25 8 40 10 30 5 35 4 18 1h47l29-2 34-4 39-8 29-8 27-9 6-3h2l1-2 11 14 11 12 7 8 7 7 7 8 10 10 8 7 10 10 8 7 16 13 14 11 20 15 24 16 17 11 9 6v2l-29 15-16 8-25 12-38 15-38 13-41 11-36 8-36 6-46 5-34 2h-62l-42-3-40-5-38-7-23-4h-6l-11 7-36 26-38 28-15 11-14 10-54 39-17 12-38 28-14 10-19 14-18 13-16 12-12 8-5 2h-11l-6-4-4-5-1-3v-11l8-59 18-129 15-104 6-46-1-4-8-8-8-7-14-12-22-22-7-8-12-14-13-15-10-13-13-18-13-19-10-16-12-21-9-16-13-28-11-27-12-36-7-26-6-29-5-35-2-20-1-17v-50l3-35 7-43 7-30 8-27 9-26 12-29 13-28 13-23 12-20 16-24 14-19 12-15 9-11 13-15 12-13 22-22 8-7 13-12 11-9 16-13 15-11 18-13 17-11 13-8 15-9 22-12 32-16 24-11 34-13 30-10 35-10 37-8 33-6 36-5 21-2z" fill="#A1CC47"/>
<path transform="translate(1816,857)" d="m0 0 6 2 19 9 22 12 29 15 52 27 23 12 31 16 8 6 1 5-9 14-12 16-11 14-9 10-9 11-7 7-7 8-19 19-8 7-15 14-7 6 2 25 5 36 13 94 16 116 9 62 1 9v11l-5 8-6 4-8 1-9-3-18-13-19-14-18-13-19-14-18-13-19-14-36-26-16-12-17-12-36-26-38-28-36-26-12-8-12 2-42 8-35 5-39 4-19 1h-74l-19-1-53-6-31-5-40-9-40-11-44-15-20-8-19-8-29-14-16-8-16-9 1-4 11-8 17-11 15-10 14-10 19-14 6-5h2l1-3 5-4h2v-2l11-9 3-3h2l1-3 8-7 7-7 8-7 10-10 7-8 9-10 7-8 13-13 5 1 35 12 33 8 32 6 30 4 26 2h56l33-3 29-4 30-6 35-9 29-10 29-12 23-11 19-10 20-12 22-15 13-10 14-11 10-9 8-7 18-18 7-8 9-11z" fill="#01A0DE"/>
<path transform="translate(1396,62)" d="m0 0h63l44 3 46 6 45 8 36 9 40 12 37 14 35 15 40 20 24 14 23 14 20 14 19 14 16 13 10 8 15 13 7 7 8 7 27 27 7 8 9 10 11 14 13 16 13 18 5 9-1 4-26 14-27 14-45 23-19 10-33 17-24 13-15 7-5-2-12-14-7-8-11-12-18-18-8-7-11-9-18-14-19-13-18-11-14-8-27-14-26-11-30-11-31-9-30-7-28-5-38-4-14-1h-49l-35 3-25 3-31 6-32 8-22 7-20 8-4-7-9-9-7-8-14-15v-2h-2l-7-8-10-10-2-1v-2h-2v-2l-4-2-7-7-11-9-10-9-17-13-14-11-13-9-18-12-22-14-4-4 1-4 24-13 23-12 22-10 30-12 31-11 49-14 32-7 27-5 42-6 19-2z" fill="#01A0DE"/>
<path transform="translate(1240,314)" d="m0 0 5 5 13 19 12 17 11 17 13 22 12 23 8 16 11 26 12 34 9 29 8 37 5 31 3 36 1 24v18l-2 36-2 19-7 43-11 44-14 41-11 26-17 34-14 24-11 18-20 28-14 19-25-10-20-9-33-18-16-10-16-11-17-13-2-1v-2l-4-2-20-18-22-22-6-8 5-5 11-13 12-16 12-19 12-22 9-19 9-24 7-24 6-29 3-30v-34l-3-31-6-29-8-27-10-25-7-15-11-21-11-18-10-14-14-18-5-5 2-4 9-10 4-5 8-7 10-10 8-7 11-9 17-13 20-14 24-14 23-12 15-7 19-8z" fill="#A1CC47"/>
<path transform="translate(1062,157)" d="m0 0 4 5 15 10 19 12 28 20 15 12 11 9 15 13 10 9 4 3v2h2v2l4 2 15 15v2h2l7 8 11 12 12 13 4 5v4l-27 11-16 7-22 12-18 10-18 12-18 13-10 8-13 11-13 12-8 8h-2l-2 4-8 8-6 7-5-5-9-10-7-8-9-9-11-9-10-9-20-15-17-12-21-13-22-12-25-12-24-9 1-5 9-10 7-8 12-13 7-8 6-5 6-7 5-5 24-22 11-9 17-14 12-9 28-20 17-11 14-10 6-1z" fill="#00934E"/>
<path transform="translate(1056,875)" d="m0 0 4 2 15 16 19 19 8 7 9 7v2l5 2 15 12 26 17 13 8 32 16 22 10 17 7-2 4-16 16-9 11-7 7-7 8-11 11-8 7-7 7-8 7-9 8h-2v2l-7 5-5 5-19 14-12 9-48 32-3 4-10-6-17-11-24-16-19-14-18-14-13-11-8-7-10-9-9-8v-2l-4-2-15-15-7-8-7-7-7-8-11-13-4-5v-2l16-6 17-7 16-8 24-13 21-13 19-14 17-13 11-9 6-5 26-26 4-7z" fill="#00934E"/>
</svg>
