<?xml version="1.0" encoding="UTF-8"?>
<svg version="1.1" viewBox="0 0 1898 2048" width="481" height="519" xmlns="http://www.w3.org/2000/svg">
<path transform="translate(1088,176)" d="m0 0h21l17 2 21 5 13 6 12 7 13 13 5 8 5 15v18l-5 16-7 10-9 8-2 4-1 8 2 5 8 7 1 5-4 3-25 3v35l-3 38-4 22-4 14-6 15-7 13-8 10-8 7-6 3-5 1h-17l-13-4-18-8h-5l-6 6v15l2 16h-10v12l10 27 4 21 2 19v11l-6 60-4 29v8l13 8 11 6 15 9 19 11 17 10 15 9 17 10 28 16 10 6 6 3 29 2 8 3 8 6 6 5 10 15 3 6v6l-6 11 2 5 4 7v44l-8 9-4 4v11l7 7-1 9-6 5v90l6 5 1 2v7l-5 6 1 5 12 21 13 23 8 15 5-1 30-13 24-7 31-7 18-2h43l25 3 34 8 26 9 24 10 20 10 18 12 6 5 1 6-10-3-33-13-20-7-28-7-24-5-21-2h-30l-21 2-30 6-25 7-26 11-18 8 1 4 9 16v2l13-5 10-5 36-12 26-5 18-2h47l24 3 22 5 24 8 18 8 16 8 12 7 15 10 13 10 10 9 8 7 11 11 9 11 13 17 12 19 9 17 11 27 7 25 6 36 1 10v33l-5 36-6 25-7 20-11 25-12 20-15 22-10 12-2 5 16 4 21 10 13 8 7 8 2 4v8l-5 9-8 7-17 9-27 10-42 11-42 9-49 8-50 7-58 6-71 6-79 5-41 2-58 2-90 2h-93l-68-1-108-3-77-4-53-4-89-8-28-3-39-6-27-4-36-6-39-8-24-6-18-6-25-10-18-10-7-6-5-9 1-7 6-8 8-8 14-8-3-5-12-14-13-16-10-15-12-22-12-27-5-15-8-32-2-15-1-16v-30l2-23 3-15 6-24 8-22 8-18 11-20 10-15 10-13 11-13 10-10v-6l-1-2-1-167-13-2-5-4-4-6-1-3v-12l4-8 5-5 9-3 21-1-1-5-5-12-5-16 9-3 38-13 36-11 44-13h6l13 26 4 1 21-6 16-5 4-2h5l5 12 3 5h6l18-6 20-6 5 1 9 20 10 22 1 9v3h29l42 1 18 1 6 3 6 8 2 5 1 113 1 7 3-1 2-4 10-13 12-15 10-13 9-11 5-7-1-6-20-50-12-31-5-8-14-2-6-4-10-9-8-8-8-11-7-12-4-11-2-14v-9l3-7 3-2-1-6-2-8v-16l5-21 3-10-7-2-2-2 2-11 12-36 14-30 12-22 11-18 13-19 14-20 13-18 10-13 13-16 7-9 12-14 11-13 7-8 13-15 14-15 9-10 16-17 13-13 4-5 8-7 15-15 13-10 26-15 6-3h2l1-5 12-9 6-4 3-5 3-7-1-5-2-2v-17l-3-43-2-38-11-7-11-11-6-10-2-6 1-10 8-14 9-10 9-9 14-11 18-12 25-13 27-10 23-5zm-138 573-11 28-8 17-9 21-4 9v5l10 6 16 9 34 20 15 9 24 15 20 13 12 8 25 17 14 11 11 9 11 10 7 10 3 8v12l-3 14-8 16-12 16-7 8v3l116 1 3-1-1-5-2-4 1-6 5-5 1-3v-86l-6-8-1-6 7-9v-12l-2-2-8 2h-11l-21-2-3-2v-10l-9-10-5-11-3-5-4-2-5 1-7 7-1 3-5-2-16-10-30-20-23-15-26-17-15-10-46-30-12-8-9-7zm-200 219 3 10 7 16 15 37 4 11 1 1 14 1h99l5-1-2-4-13-11-17-13-19-14-15-10-17-11-16-10-6-1h-11l-18-1zm34 93 1 7 12 36 29 85 9 27 12 37 6 18 12 35 7 21 7 14h3l4-8 4-10 8-31-1-5-18-5-6-4-5-6-10-7-4-5 2-5 9-24 7-14 7-7 5-3 3-11 9-17 6-11 10-20 8-14 10-17 8-14 2-4v-7l-5-15-6-8-8-8zm285 0-5 3-2 3 1 8 9 28 1 10-3 10-8 16-12 25-17 34-9 19-10 19-7 12-5 11v3h34l12-12 7-8 8-8 7-8 31-33 12-12 7-8 9-10 15-16 9-10 9-9 7-8 12-12 7-8 11-12 7-8 8-9 5-4 2-5-2-1zm170 19-9 10-15 15-7 8-15 15v2h-2l-7 8-11 11-7 8-13 13v2h-2l-7 8-9 9-7 8-8 8-7 8-13 13-14 16-20 20-7 8-7 6-1 7-7 8-7 3-10 10v2l-4 2v2h-2l-7 8-10 10-7 8-15 15v2l-4 2-8 9 2 5 8 16 5 17 1 7v11l-4 16-5 13-9 13-5 6-13 10-17 8-13 5 2 4 15 9 7 2 16 1 38 1 11 1 4 2 5 6 3 1 80 1 86 2h12l-3-10-9-24-8-24-5-23-4-27-1-11v-20l4-29 5-25 6-20 11-28 10-19 11-17 12-16 12-14 17-17-1-4-10-13-4-5-5 2-9 8-10 8-14 12-12 11-10 7-4 2h-3l1-10 6-16 14-22 6-8 24-24 14-11 13-9 8-6 1-3-9-17-10-17zm-470 5-10 13-12 15-9 12-11 13-6 8 2 5 14 14 9 11 11 16 6 12 5 16 1 6-8-3-9-6-13-12-11-9-12-10-3-2h-3l-1 11v17l5 5 14 17 13 19 10 17 11 23 9 25 5 19h33l48-1-2-9-27-81-13-37-42-123zm509 63-21 14-10 8 4 7 12 13 4-2 11-8 13-10-1-5-10-17zm138 0-21 3-27 6-21 7-25 11-1 4 9 15 10 18 9 16 14 25 8 14 28 48 13 22 6 5-3-16-6-20-8-33-5-17-9-35-6-21-4-17-2-5 3 3 12 44 8 32 22 84 2 10 1 1h8l2-157 1-24 1 180 1 1h7l5-19 11-39 10-37 7-24 8-30 7-25h2l-4 16-18 65-12 44-11 40-1 10 7 2 4-7 15-25 13-23 15-25 28-48 15-25 3-2-4 8-16 27-9 15-8 14-11 19-14 24-16 28-8 13-5 8 4 4 5-1 15-14 30-30 6-5 7-8 7-7 6-5 5-6 7-6 37-37 6-5 2-1-3 5-16 16-5 4v2h-2v2h-2v2l-4 2-88 88-8 6 2 5 5 4 4-4 16-9 25-14 19-11 16-9 25-14 19-11 22-13 10-5-4 4-22 13-11 6-24 14-20 11-17 10-25 14-21 12-11 7-1 2 3 6 42-11 20-5 17-5 60-15 31-8h5l-9 3-28 8-60 15-35 9-12 3-12 4-17 3-1 1v8l1 1 51 1h35v2h-52l-34-1-1 8 5 3 39 10 17 5 21 6 16 4 13 4 31 8 23 7 9 3-1 1-32-8-20-6-30-8-14-4-34-9-24-7-18-5h-2l-2 3 1 4 8 6 19 11 24 14 17 10 28 16 20 12 12 7 16 10 9 6 1 2-8-4-15-9-26-15-41-24-19-11-24-14-20-12-2-2-4 1-3 4 2 4 8 7 44 44 7 8 43 43 11 12 11 11 1 3-5-2-1-3-8-7-12-12-7-8-37-37-7-8-24-24-8-7-16-16-3-4-5 2-1 5 11 18 6 11 39 69 9 17 5 7 6 2 28 4 15 2 3 1-12 9-11 8-12 7-19 10-19 8-20 8-12 3-15 2h-46l-22-4-28-8-19-7-19-9-7-4-13-8-14-10-10-9-11-12-12-13-5-5-2-3 23 1 17 1v2l-5 5 1 2 8-8 6-4 12-12 8-7 57-57 8-7 16-16-1-5-4-2-33 18-24 14-45 25-19 11-14 8-19 11-5 2 3-3 17-10 26-15 21-12 27-15 28-16 16-9 18-10 2-3-3-6-20 4-20 6-25 6-20 5-18 5-27 7-14 4-28 7-4-1 26-7 41-11 15-4 48-12 23-6 22-6-1-8-4-1-68-1-1-2 66 1 7-1v-8l-31-8-19-6-28-7-32-9-36-9-29-9-1-2 34 9 24 7 24 6 27 8 15 4 41 11 12 2 2-5v-3l-20-11-13-8-22-13-24-14-23-13-28-17-16-9-8-5h-2v-2l16 8 26 15 22 13 13 8 22 13 26 15 23 13 9 5 4-2-1-5-8-10-8-8-7-8-11-11-7-8-11-11-8-7-9-9-7-8-8-7-32-32-8-10 6 5h2v2l8 7 15 15 6 7 28 28 8 7v-3l-13-16-9-11-9-10-9-11-10-11-9-11-12-15-6-7-5 2-15 16-13 15-9 13-8 13-11 20-8 21-6 20-5 24-2 26v27l2 21 5 25 5 16 6 17 11 23 8 13 12 17 13 16 22 22 11 9 14 10 13 8 23 12 31 12 29 6 26 2h19l26-2 24-4 17-4 29-11 22-11 19-13 9-7 13-11 12-11 7-7 8-10 9-12 12-19 12-23 9-25 6-21 3-14 2-24v-29l-2-24-6-28-10-29-8-16-11-20-11-16-12-14-5-6h-2l-2-4-12-12-11-9-15-11-13-8-18-10-20-9-18-6-30-7-21-3zm-116 40-18 13-5 4 2 5 9 10 9 11 11 13 9 11 12 14 9 11 13 15 14 17 9 10 6 7h2l-2-6-11-20-13-23-10-18-6-11-17-29-12-21-8-13zm-956 32-10 10-9 11-10 13-9 15-9 16-10 24-8 24-5 26-2 28v15l2 25 4 23 6 20 9 24 8 16 11 19 14 19 14 15 13 13 10 8 17 13 13 8 24 13 29 11 27 6 12 1h59l19-2 24-5 28-10 23-12 12-8 10-7 22-18 20-20 8-10 11-15 11-18 8-16 7-17-1-2-33-5-27-2-22-2h-11l5 5 23 13 21 12 9 6-1 2-43-25-14-9-13-6-23-3-18-2h-11l6 7 4 2v2l58 58 2 1h9l24-4h8l-7 8-8 7-9 10-8 11-26 16-14 9-13 8-15 7-25 9-7 5-15 2-26 1-29-1-9-2-14-2-21-7-16-5-23-11-2-5-2 4-6-4 1-4 1-2-4 2h-4l-12-7-4-3v-2l26-6 12-3 7-11 6-10 14-24 11-20 10-17 16-27-1-4-4-4-1-4-4 1-14 14-6 5-7 8-32 32-2 1v2l-4 2v2l-4 2-4 4v2h-2l-7 8-29 29-4 2 7-8 15-15 6-7 2-1v-2l4-2v-2l3-1 12-12 6-7 6-5 7-8 5-4 7-8 5-4 7-8 16-16 8-7 2-1-2-9-2-3-5 1-11 7-11 6-28 16-16 9-14 8-15 9-24 14-14 8-12 6 3-3 15-9 14-8 24-14 26-15 16-9 13-8 11-6 23-13 2-4-1-8 2-1-13 2-19 6-17 4-59 16-12 3-13 4-35 9h-3l-1-2 11-2 51-14 21-5 16-5 32-8 17-5 37-9-1-7-190-1v-2h187l1-5-3-3-39-10-17-5-36-9-25-7-44-11-17-5-1-3 42 12 36 9 22 6 30 8 44 12 7 2 1-1-1-8-8-5-36-20-26-15-14-8-22-13-25-14-21-12-7-5 1-1 14 7 24 14 25 15 26 15 20 11 17 10 16 9 13 8 4 1 1-2v-7l-6-7-8-7-28-28-4-5-8-7-28-28-8-9-5-5h-2l-2-4-21-21-4-5 8 6 101 101 4 5 12 12 7-7-1-4-4-5-12-22-9-16-28-49-10-19-1-1-43-1-15-5-15-10-5-3zm354 12-12 5-16 2-4 2-9 11-64 64-11 9-12 14v3h27l9-2 15-9 17-10 48-28 16-9 4-1-13 8-52 30-26 16-4 4 48-1 54-1 12-3 5-1 1 3 5 1h15l4-2-6-23-8-20-10-20-12-19-12-16-6-7zm-270 7-1 2 16 26 15 27 12 21 11 19 10 17 4-1 5-4-2-9-8-31-3-12-5-17-6-28 5 15 7 27 11 41 3 12 7-2-1-15-7-52-5-36zm82 0-2 1 1 16 2 8 2 7h1v-30h2v59l2 19 3 20 1 1h6l5-17 11-43 8-28 3-8-11 44-10 35-4 18 6 1 4-9 10-26 8-22 6-16 10-27 1-3zm78 0-5 8-8 21-7 20-2 5v3l5-2 6-8 10-17 16-28v-2zm28 0-5 4-12 19-5 8 1 2 6-5 10-13 6-8 2-3v-4zm32 0-10 12-14 19-9 11-12 15-15 20 1 2 77-77-1-2zm-83 57m417 2-13 26-6 13h3l10-10 7-8 13-13 4-5v-2zm-414 4m-1 1-4 5-4 7 1 2 7-10 1-4zm-9 14-2 5 3-3zm-3 5m300 16-77 2-1 5 3 21 1 11v34l-3 26-5 25-2 9 1 5 21 3 29 3 3-1 8-17 7-9 6-2 1 4h1v-6l-7-2-6-18-2-13 1-17 5-18 9-15 7-9 8-6-1-5-3-9zm-127 2-19 1-16 5-55 14-36 10-23 6-14 4-2 2v8l16 1 89 1 71-1 1 3-177-1-3 5 1 4 5 3 31 7 28 8 37 10 7 3 1 2-23-7-36-9-24-7-27-7-5 1-2 5 20 12 56 32 9 5 8 3 13 2 30 2 18 2 35 4h6l3-7 8-32 2-18v-44l-3-25-2-6-1-1zm-49 2-22 1-54 1-9 4-29 17-3 2 1 11 16-4 39-10 13-4 48-12 9-2 2-3-1-1zm-113 3-10 10 2 5 3 5 4-2 19-11 6-3 4-4zm-42 7 1 11 7 6 4 7v10l-4 7-7 3-9-1-6-4-2-4-1-14-2-3 5-4 1-2v-8l-1-2-5 2-8 7-4 8-1 3v14l3 8 6 8 9 6 9 2h9l9-3 9-7 6-10 1-3v-15l-4-9-7-8-7-4-3-1zm902 5-8 3-9 7-6 8-3 7-1 5v11l3 10 6 9 7 6 12 5 5 1h7l10-3 10-6 6-7 4-8 2-9-1-13-4-10-7-8-9-6-7-2zm-941 48-9 3-5 1 3 3 7 1h8l4 3h2l-2-4-3-1-2-5zm64 8-4 5 9 10 13 12 15 15 10 2 15 1h20l-3-3-25-14-24-14-21-12zm-11 7-2 1 2 4 6 11 9 15 1 1 15 2h7l-6-7-27-27zm-33 1-1 4-2 6-6 8-4 4 1 3 9 1 3-7 4-14v-5zm8 2-3 6-4 17v2h11v-18l-1-6zm17 0-1 5 6 22 4 1h10l-8-16-7-12zm-11 1 1 25 4 1h8l-4-18-3-8zm-31 1-3 1 1 4 4 5 5-1 2-4-1-5zm918 1-4 5-4 3v2l-3 1v2l-3 1-51 51-8 7-22 22v2h-2l-3 4v2l24 1 19 2h5l4-5 14-25 15-25 13-22 10-17 4-7-5-4zm11 6-7 10-11 19-18 30-15 26-5 10-1 4 1 1 22 1 11 1 4-6 8-28 7-26 10-36v-4zm34 0-3 2 2 9 12 44 8 31 5 19 3 9 4 1h14l21 4h5l-1-5-7-14-13-23-14-25-10-17-8-14-9-16-3-5zm-11 2-2 1-1 50v54l2 1 24 2 10 3-1-8-6-25-7-28-4-13-5-19-5-18zm-12 1-3 7-7 24-11 39-6 25v6l3 1h19l9 2 1-1 1-16v-86l-1-1zm-940 15-6 9-10 18-14 24-16 29-14 25-1 4 10-3 16-3h16l1 3h2l5-12 7-28 6-21 9-34 3-10-2-1zm19 1-3 2-11 40-8 30-4 17-2 6v6l11-4 5-1 18-1 3-1 1-44v-48l-1-1zm13 2v88l1 2 24-3h7l2-1-1-11-7-27-5-16-5-21-3-10-1-1zm16 1 3 11 5 20 5 18 8 30 3 5 10-1h27l-1-5-8-16-12-21-11-19-8-13-3-6-4-2zm21 2v3l4 5 6 11 12 21 9 15 9 16 6 8 3 1 13-3 6-1 18-1 7-1-1-4-11-11-5-6h-2l-2-4-43-43-6-4-17-2zm304 9 1 3 4 1h9v-2l-6-2zm-92 14-4 7-6 16-9 20v2l11-1 43-3 4-1 9-15 3-8 4-10v-2l-15-2-26-3z" fill="#305B70"/>
<path transform="translate(460,913)" d="m0 0h6l13 26 4 1 21-6 16-5 4-2h5l5 12 3 5h6l18-6 20-6 5 1 9 20 10 22 1 9v3h29l42 1 18 1 6 3 6 8 2 5 1 113 1 7 3-1 2-4 10-13 12-15 10-13 9-11 5-7-1-6-20-50-12-31-2-5 8-1 14 1 2 1 5 12 12 29 9 23 3 8 14 1h99l6-1v2l5 2 11 10 3 5h-134l4 13 12 36 19 55 12 35 9 29 14 42 12 35 7 21 6 13 2 2-6 2-11 8-3-4-3-9-80 2 2 17 2 19v34l-3 26-5 25-2 9v4l21 3 29 3h2v3l-26-2-15-2h-14l-5 12-8 19-6 13 11-2 47-3 2-4 2 10 8 6 15 8 28 13 17 9 6 2h7l6-3 4-5 1-7-3-11 16 2 23 3 16 1h23l16-2 12-5 6-5 3-6v-8-3l5 3 80 1 86 2 12 1 1-2 9 15 11 16 9 13 11 12 13 12 16 15 16 12 13 8 32 16 24 9 22 6 20 4 16 2 17 1h11l25-2 28-5 19-5 22-8 26-12 18-10 14-10 13-10 12-11 14-14 1 2 16 4 21 10 13 8 7 8 2 4v8l-5 9-8 7-17 9-27 10-42 11-42 9-49 8-50 7-58 6-71 6-79 5-41 2-58 2-90 2h-93l-68-1-108-3-77-4-53-4-89-8-28-3-39-6-27-4-36-6-39-8-24-6-18-6-25-10-18-10-7-6-5-9 1-7 6-8 8-8 14-8-3-5-12-14-13-16-10-15-12-22-12-27-5-15-8-32-2-15-1-16v-30l2-23 3-15 6-24 8-22 8-18 11-20 10-15 10-13 11-13 10-10v-6l-1-2-1-167-13-2-5-4-4-6-1-3v-12l4-8 5-5 9-3 21-1-1-5-5-12-5-16 9-3 38-13 36-11zm309 172-10 13-12 15-9 12-11 13-6 8 2 5 14 14 9 11 11 16 6 12 5 16 1 6-8-3-9-6-13-12-11-9-12-10-3-2h-3l-1 11v17l5 5 14 17 13 19 10 17 11 23 9 25 5 19h33l48-1-2-9-27-81-13-37-42-123zm-425 135-10 10-9 11-10 13-9 15-9 16-10 24-8 24-5 26-2 28v15l2 25 4 23 6 20 9 24 8 16 11 19 14 19 14 15 13 13 10 8 17 13 13 8 24 13 29 11 27 6 12 1h59l19-2 24-5 28-10 23-12 12-8 10-7 22-18 20-20 8-10 11-15 11-18 8-16 7-17-1-2-33-5-27-2-22-2h-11l5 5 23 13 21 12 9 6-1 2-43-25-14-9-13-6-23-3-18-2h-11l6 7 4 2v2l58 58 2 1h9l24-4h8l-7 8-8 7-9 10-8 11-26 16-14 9-13 8-15 7-25 9-7 5-15 2-26 1-29-1-9-2-14-2-21-7-16-5-23-11-2-5-2 4-6-4 1-4 1-2-4 2h-4l-12-7-4-3v-2l26-6 12-3 7-11 6-10 14-24 11-20 10-17 16-27-1-4-4-4-1-4-4 1-14 14-6 5-7 8-32 32-2 1v2l-4 2v2l-4 2-4 4v2h-2l-7 8-29 29-4 2 7-8 15-15 6-7 2-1v-2l4-2v-2l3-1 12-12 6-7 6-5 7-8 5-4 7-8 5-4 7-8 16-16 8-7 2-1-2-9-2-3-5 1-11 7-11 6-28 16-16 9-14 8-15 9-24 14-14 8-12 6 3-3 15-9 14-8 24-14 26-15 16-9 13-8 11-6 23-13 2-4-1-8 2-1-13 2-19 6-17 4-59 16-12 3-13 4-35 9h-3l-1-2 11-2 51-14 21-5 16-5 32-8 17-5 37-9-1-7-190-1v-2h187l1-5-3-3-39-10-17-5-36-9-25-7-44-11-17-5-1-3 42 12 36 9 22 6 30 8 44 12 7 2 1-1-1-8-8-5-36-20-26-15-14-8-22-13-25-14-21-12-7-5 1-1 14 7 24 14 25 15 26 15 20 11 17 10 16 9 13 8 4 1 1-2v-7l-6-7-8-7-28-28-4-5-8-7-28-28-8-9-5-5h-2l-2-4-21-21-4-5 8 6 101 101 4 5 12 12 7-7-1-4-4-5-12-22-9-16-28-49-10-19-1-1-43-1-15-5-15-10-5-3zm354 12-12 5-16 2-4 2-9 11-64 64-11 9-12 14v3h27l9-2 15-9 17-10 48-28 16-9 4-1-13 8-52 30-26 16-4 4 48-1 54-1 12-3 5-1 1 3 5 1h15l4-2-6-23-8-20-10-20-12-19-12-16-6-7zm-270 7-1 2 16 26 15 27 12 21 11 19 10 17 4-1 5-4-2-9-8-31-3-12-5-17-6-28 5 15 7 27 11 41 3 12 7-2-1-15-7-52-5-36zm82 0-2 1 1 16 2 8 2 7h1v-30h2v59l2 19 3 20 1 1h6l5-17 11-43 8-28 3-8-11 44-10 35-4 18 6 1 4-9 10-26 8-22 6-16 10-27 1-3zm78 0-5 8-8 21-7 20-2 5v3l5-2 6-8 10-17 16-28v-2zm28 0-5 4-12 19-5 8 1 2 6-5 10-13 6-8 2-3v-4zm32 0-10 12-14 19-9 11-12 15-15 20 1 2 77-77-1-2zm-83 57m3 6m-1 1-4 5-4 7 1 2 7-10 1-4zm-9 14-2 5 3-3zm-3 5m173 18-19 1-16 5-55 14-36 10-23 6-14 4-2 2v8l16 1 89 1 71-1 1 3-177-1-3 5 1 4 5 3 31 7 28 8 37 10 7 3 1 2-23-7-36-9-24-7-27-7-5 1-2 5 20 12 56 32 9 5 8 3 13 2 30 2 18 2 35 4h6l3-7 8-32 2-18v-44l-3-25-2-6-1-1zm-49 2-22 1-54 1-9 4-29 17-3 2 1 11 16-4 39-10 13-4 48-12 9-2 2-3-1-1zm-113 3-10 10 2 5 3 5 4-2 19-11 6-3 4-4zm-42 7 1 11 7 6 4 7v10l-4 7-7 3-9-1-6-4-2-4-1-14-2-3 5-4 1-2v-8l-1-2-5 2-8 7-4 8-1 3v14l3 8 6 8 9 6 9 2h9l9-3 9-7 6-10 1-3v-15l-4-9-7-8-7-4-3-1zm-39 53-9 3-5 1 3 3 7 1h8l4 3h2l-2-4-3-1-2-5zm64 8-4 5 9 10 13 12 15 15 10 2 15 1h20l-3-3-25-14-24-14-21-12zm-11 7-2 1 2 4 6 11 9 15 1 1 15 2h7l-6-7-27-27zm-33 1-1 4-2 6-6 8-4 4 1 3 9 1 3-7 4-14v-5zm8 2-3 6-4 17v2h11v-18l-1-6zm17 0-1 5 6 22 4 1h10l-8-16-7-12zm-11 1 1 25 4 1h8l-4-18-3-8zm-31 1-3 1 1 4 4 5 5-1 2-4-1-5zm0 25-6 9-10 18-14 24-16 29-14 25-1 4 10-3 16-3h16l1 3h2l5-12 7-28 6-21 9-34 3-10-2-1zm19 1-3 2-11 40-8 30-4 17-2 6v6l11-4 5-1 18-1 3-1 1-44v-48l-1-1zm13 2v88l1 2 24-3h7l2-1-1-11-7-27-5-16-5-21-3-10-1-1zm16 1 3 11 5 20 5 18 8 30 3 5 10-1h27l-1-5-8-16-12-21-11-19-8-13-3-6-4-2zm21 2v3l4 5 6 11 12 21 9 15 9 16 6 8 3 1 13-3 6-1 18-1 7-1-1-4-11-11-5-6h-2l-2-4-43-43-6-4-17-2z" fill="#305B6F"/>
<path transform="translate(1015,1514)" d="m0 0 6 3 80 1 86 2 12 1 1-2 9 15 11 16 9 13 11 12 13 12 16 15 16 12 13 8 32 16 24 9 22 6 20 4 16 2 17 1h11l25-2 28-5 19-5 22-8 26-12 18-10 14-10 13-10 12-11 14-14 1 2 16 4 21 10 13 8 7 8 2 4v8l-5 9-8 7-17 9-27 10-42 11-42 9-49 8-50 7-58 6-71 6-79 5-41 2-58 2-90 2h-93l-68-1-108-3-77-4-53-4-89-8-28-3-39-6-27-4-36-6-39-8-24-6-18-6-25-10-18-10-7-6-5-9 1-7 6-8 8-8 14-8h3l8 8 14 11 13 10 13 8 16 8 21 10 25 9 25 6 27 4 14 1h17l23-2 19-3 24-6 26-9 17-8 19-10 11-6 13-10 15-13 12-11 14-14 12-16 9-13 10-16h7l5-1 47-3 2-4 2 10 8 6 15 8 28 13 17 9 6 2h7l6-3 4-5 1-7-3-11 16 2 23 3 16 1h23l16-2 12-5 6-5 3-6v-8z" fill="#E3E4E4"/>
<path transform="translate(1190,777)" d="m0 0 31 2 8 3 8 6 6 5 10 15 3 6v6l-6 11 2 5 4 7v44l-8 9-4 4v11l7 7-1 9-6 5v90l6 5 1 2v7l-5 6 1 5 12 21 13 23 8 15 5-1 30-13 24-7 31-7 18-2h43l25 3 34 8 26 9 24 10 20 10 18 12 6 5 1 6-10-3-33-13-20-7-28-7-24-5-21-2h-30l-21 2-30 6-25 7-26 11-18 8 1 4 9 16v2l13-5 10-5 36-12 26-5 18-2h47l24 3 22 5 24 8 18 8 16 8 12 7 15 10 13 10 10 9 8 7 11 11 9 11 13 17 12 19 9 17 11 27 7 25 6 36 1 10v33l-5 36-6 25-7 20-11 25-12 20-15 22-10 12-2 3h-2l-2 4-19 19-17 13-11 8-17 10-23 11-23 9-21 6-26 5-16 2-15 1h-11l-25-2-19-3-17-4-23-7-21-9-30-15-12-8-10-8-20-18-7-7-8-7-10-11-24-36-3-5v-2h-2l-11-29-9-27-5-23-4-27-1-11v-20l4-29 5-25 6-20 11-28 10-19 11-17 12-16 12-14 17-17-1-4-10-13-3-4-5 2-9 8-10 8-14 12-12 11-10 7-4 2-4-1 1-10 6-16 14-22 7-9 24-24 14-11 13-9 8-6-2-6-10-18-8-13h-2l-2 3h-2l-2 4-17 17-7 8-15 15-1 2h-2l-2 4-15 15-7 8-13 13-1 2h-2l-2 4-13 13-7 8-8 8-7 8-13 13-7 8-8 9-19 19-7 8-7 6-1 7-8 9-7 3-9 9-5 6h-2l-2 4-14 14-7 8-20 20-7 8-4-1-9-8 1-7 4-10 8-7 14-15 10-10 5-7h-10v-1l11-1 7-7 7-8 11-12 3-5-20-2v-1l29-1 2-4 7-7 7-8 8-8 7-8 31-33 12-12 7-8 9-10 15-16 9-10 9-9 7-8 12-12 7-8 11-12 7-8 9-10 5-5 2-3h-152l-5 2-5-3-6-12v-5l1-1 30-1 6-1v2h119l-4-9 1-6 5-5 1-3v-86l-6-8-1-6 7-9v-12l-4-1-5 2h-11l-21-2-4-3v-10l-9-10-5-11-3-5-6-2 5-9 13-19 8-9 2-10 8-16 9-15zm88 371-21 14-10 8 4 7 12 13 4-2 11-8 13-10-1-5-10-17zm138 0-21 3-27 6-21 7-25 11-1 4 9 15 10 18 9 16 14 25 8 14 28 48 13 22 6 5-3-16-6-20-8-33-5-17-9-35-6-21-4-17-2-5 3 3 12 44 8 32 22 84 2 10 1 1h8l2-157 1-24 1 180 1 1h7l5-19 11-39 10-37 7-24 8-30 7-25h2l-4 16-18 65-12 44-11 40-1 10 7 2 4-7 15-25 13-23 15-25 28-48 15-25 3-2-4 8-16 27-9 15-8 14-11 19-14 24-16 28-8 13-5 8 4 4 5-1 15-14 30-30 6-5 7-8 7-7 6-5 5-6 7-6 37-37 6-5 2-1-3 5-16 16-5 4v2h-2v2h-2v2l-4 2-88 88-8 6 2 5 5 4 4-4 16-9 25-14 19-11 16-9 25-14 19-11 22-13 10-5-4 4-22 13-11 6-24 14-20 11-17 10-25 14-21 12-11 7-1 2 3 6 42-11 20-5 17-5 60-15 31-8h5l-9 3-28 8-60 15-35 9-12 3-12 4-17 3-1 1v8l1 1 51 1h35v2h-52l-34-1-1 8 5 3 39 10 17 5 21 6 16 4 13 4 31 8 23 7 9 3-1 1-32-8-20-6-30-8-14-4-34-9-24-7-18-5h-2l-2 3 1 4 8 6 19 11 24 14 17 10 28 16 20 12 12 7 16 10 9 6 1 2-8-4-15-9-26-15-41-24-19-11-24-14-20-12-2-2-4 1-3 4 2 4 8 7 44 44 7 8 43 43 11 12 11 11 1 3-5-2-1-3-8-7-12-12-7-8-37-37-7-8-24-24-8-7-16-16-3-4-5 2-1 5 11 18 6 11 39 69 9 17 5 7 6 2 28 4 15 2 3 1-12 9-11 8-12 7-19 10-19 8-20 8-12 3-15 2h-46l-22-4-28-8-19-7-19-9-7-4-13-8-14-10-10-9-11-12-12-13-5-5-2-3 23 1 17 1v2l-5 5 1 2 8-8 6-4 12-12 8-7 57-57 8-7 16-16-1-5-4-2-33 18-24 14-45 25-19 11-14 8-19 11-5 2 3-3 17-10 26-15 21-12 27-15 28-16 16-9 18-10 2-3-3-6-20 4-20 6-25 6-20 5-18 5-27 7-14 4-28 7-4-1 26-7 41-11 15-4 48-12 23-6 22-6-1-8-4-1-68-1-1-2 66 1 7-1v-8l-31-8-19-6-28-7-32-9-36-9-29-9-1-2 34 9 24 7 24 6 27 8 15 4 41 11 12 2 2-5v-3l-20-11-13-8-22-13-24-14-23-13-28-17-16-9-8-5h-2v-2l16 8 26 15 22 13 13 8 22 13 26 15 23 13 9 5 4-2-1-5-8-10-8-8-7-8-11-11-7-8-11-11-8-7-9-9-7-8-8-7-32-32-8-10 6 5h2v2l8 7 15 15 6 7 28 28 8 7v-3l-13-16-9-11-9-10-9-11-10-11-9-11-12-15-6-7-5 2-15 16-13 15-9 13-8 13-11 20-8 21-6 20-5 24-2 26v27l2 21 5 25 5 16 6 17 11 23 8 13 12 17 13 16 22 22 11 9 14 10 13 8 23 12 31 12 29 6 26 2h19l26-2 24-4 17-4 29-11 22-11 19-13 9-7 13-11 12-11 7-7 8-10 9-12 12-19 12-23 9-25 6-21 3-14 2-24v-29l-2-24-6-28-10-29-8-16-11-20-11-16-12-14-5-6h-2l-2-4-12-12-11-9-15-11-13-8-18-10-20-9-18-6-30-7-21-3zm-116 40-18 13-5 4 2 5 9 10 9 11 11 13 9 11 12 14 9 11 13 15 14 17 9 10 6 7h2l-2-6-11-20-13-23-10-18-6-11-17-29-12-21-8-13zm126 169-8 3-9 7-6 8-3 7-1 5v11l3 10 6 9 7 6 12 5 5 1h7l10-3 10-6 6-7 4-8 2-9-1-13-4-10-7-8-9-6-7-2zm-20 69-4 5-4 3v2l-3 1v2l-3 1-51 51-8 7-22 22v2h-2l-3 4v2l24 1 19 2h5l4-5 14-25 15-25 13-22 10-17 4-7-5-4zm11 6-7 10-11 19-18 30-15 26-5 10-1 4 1 1 22 1 11 1 4-6 8-28 7-26 10-36v-4zm34 0-3 2 2 9 12 44 8 31 5 19 3 9 4 1h14l21 4h5l-1-5-7-14-13-23-14-25-10-17-8-14-9-16-3-5zm-11 2-2 1-1 50v54l2 1 24 2 10 3-1-8-6-25-7-28-4-13-5-19-5-18zm-12 1-3 7-7 24-11 39-6 25v6l3 1h19l9 2 1-1 1-16v-86l-1-1z" fill="#CE6349"/>
<path transform="translate(730,968)" d="m0 0 19 1 2 1 5 12 12 29 9 23 3 8 14 1h99l6-1v2l5 2 11 10 3 5h-134l4 13 12 36 19 55 12 35 9 29 14 42 12 35 7 21 6 13 2 2-6 2-11 8-3-4-3-9-80 2 2 17 2 19v34l-3 26-5 25-2 9v4l21 3 29 3h2v3l-26-2-15-2h-14l-5 12-8 19-8 16-10 15-13 18-9 11-20 20-11 9-10 9-14 10-42 21-19 7-24 7-21 4-16 2-14 1h-17l-22-2-24-4-23-6-22-8-25-12-16-8-17-12-16-13-10-9-5-5-9-10-9-11-12-15-8-13-10-18-12-26-6-18-8-32-2-15-1-16v-30l2-23 3-15 6-24 8-22 8-18 11-20 10-15 10-13 11-13 10-10 1-5h1l1 8 1 3h2l2 4v3l2 1-1 2 4-2 3 1-8 7-9 10-10 13-10 15-12 22-10 25-7 21-5 26-2 28v15l2 25 4 23 6 20 9 24 8 16 11 19 14 19 14 15 12 12 10 8 17 13 13 8 24 13 29 11 27 6 12 1h59l19-2 24-5 28-10 23-12 12-8 10-7 22-18 15-15h2l2-4 8-10 11-15 11-18 8-16 7-17v-1l-33-5-27-2-22-2h-10l9 6 25 14 22 13 2 4-2 1-43-25-14-9-13-6-23-3-18-2h-10l7 7 2 1v2l4 2 9 10 45 45 2 1h9l24-4h9l-6 8-10 9-7 8-9 12-10 7-12 7-11 7-13 8-10 6-18 8-18 6-9 6-15 2-26 1-29-1-9-2-14-2-21-7-16-5-23-11-2-4-1 3-7-4-1-4v-1l-4 2-13-8-5-4 1-3 26-6 12-3 12-20 14-24 11-20 10-17 16-27v-3l-5-5v-4l-5 3-13 13h-2l-2 4h-2l-2 4-37 37h-2v2l-8 7-4 5h-2l-2 4-34 34-4 1 2-4 19-19 7-8h2v-2l6-5 12-12 7-8h2l1-3 25-25h2l1-3 22-22 8-7h2l-4-11-5 1-11 7-11 6-28 16-16 9-14 8-15 9-24 14-14 8-9 5h-3l1-3 38-22 26-15 17-10 16-9 13-8 11-6 23-13 1-3-1-6v-2l-17 4-12 4-17 4-59 16-12 3-13 4-35 9-4-1v-2l62-17 21-5 16-5 32-8 17-5 34-8h3l-1-7h-190v-4h187v-6l-18-4-26-7-19-5-31-8-25-7-44-11-17-5-1-4 10 2 43 12 25 6 22 6 30 8 44 12 7 2-1-8-22-12-10-6-25-14-21-12-25-15-27-15-21-12-8-6 2-2 14 7 24 14 25 15 26 15 20 11 17 10 16 9 13 8h4v-7l-5-5v-2l-4-2-28-28v-2l-4-2-4-4v-2l-3-1-13-13v-2l-4-2-12-12v-2l-4-2-8-9-7-6-7-8-17-17-4-6 4 2 10 9 102 102 10 11 5-5 1-4-5-6-12-22-9-16-28-49-7-13 1-3 12 19 14 25 12 21 14 24 10 18 4-1 4-3-2-9-8-31-3-12-5-17-6-27 1-3 6 17 7 27 11 41 2 8v4l7-2-9-67-4-28v-7h12l3 22 2 5v-18l1-8h2l1 59 2 19 3 20 6 1 4-17 11-43 8-28 4-10 1 2-11 44-10 35-4 17 5 1 8-21 7-19 7-18 13-36 3-7 5-1h7l1 2-5 11-11 30-5 14 6-4 5-7 4-3 1-3 6-5 4-1 2-2 5-3 11-14 6-8 3-7h26l2 2-13 17-10 13-20 25-15 20 5-4 71-71v3l-14 15-58 58-11 9-9 11-3 4h27l9-2 15-9 17-10 48-28 16-9 4-2 3 1-11 7-24 14-28 16-23 14-11 7 47-1 54-1 12-3 5-1 1 4h20l3-1-6-23-8-20-10-20-12-19-12-16-5-6h-5l1-2 9-3 3-9 1-5 5 3 14 17 13 19 10 17 11 23 9 25 4 16v3l33-1h48l-30-90-13-37-42-123-3-1-2 4-11 14-14 18-9 11-10 13v4l7 8 8 8 9 11 11 16 6 12 5 16v6l-7-1-11-8-12-11-11-9-12-10-6-3v-58l4-2 2-4 10-13 12-15 10-13 9-11 5-7-1-6-20-50-12-31-2-5zm-165 328m3 6m-1 1-4 5-4 7 1 2 7-10 1-4zm-9 14-2 5 3-3zm-3 5m173 18-19 1-16 5-55 14-36 10-23 6-14 4-2 2v8l16 1 89 1 71-1 1 3-177-1-3 5 1 4 5 3 31 7 28 8 37 10 7 3 1 2-23-7-36-9-24-7-27-7-5 1-2 5 20 12 56 32 9 5 8 3 13 2 30 2 18 2 35 4h6l3-7 8-32 2-18v-44l-3-25-2-6-1-1zm-49 2-22 1-54 1-9 4-29 17-3 2 1 11 16-4 39-10 13-4 48-12 9-2 2-3-1-1zm-113 3-10 10 2 5 3 5 4-2 19-11 6-3 4-4zm-42 7 1 11 7 6 4 7v10l-4 7-7 3-9-1-6-4-2-4-1-14-2-3 5-4 1-2v-8l-1-2-5 2-8 7-4 8-1 3v14l3 8 6 8 9 6 9 2h9l9-3 9-7 6-10 1-3v-15l-4-9-7-8-7-4-3-1zm-39 53-9 3-5 1 3 3 7 1h8l4 3h2l-2-4-3-1-2-5zm64 8-4 5 9 10 13 12 15 15 10 2 15 1h20l-3-3-25-14-24-14-21-12zm-11 7-2 1 2 4 6 11 9 15 1 1 15 2h7l-6-7-27-27zm-33 1-1 4-2 6-6 8-4 4 1 3 9 1 3-7 4-14v-5zm8 2-3 6-4 17v2h11v-18l-1-6zm17 0-1 5 6 22 4 1h10l-8-16-7-12zm-11 1 1 25 4 1h8l-4-18-3-8zm-31 1-3 1 1 4 4 5 5-1 2-4-1-5zm0 25-6 9-10 18-14 24-16 29-14 25-1 4 10-3 16-3h16l1 3h2l5-12 7-28 6-21 9-34 3-10-2-1zm19 1-3 2-11 40-8 30-4 17-2 6v6l11-4 5-1 18-1 3-1 1-44v-48l-1-1zm13 2v88l1 2 24-3h7l2-1-1-11-7-27-5-16-5-21-3-10-1-1zm16 1 3 11 5 20 5 18 8 30 3 5 10-1h27l-1-5-8-16-12-21-11-19-8-13-3-6-4-2zm21 2v3l4 5 6 11 12 21 9 15 9 16 6 8 3 1 13-3 6-1 18-1 7-1-1-4-11-11-5-6h-2l-2-4-43-43-6-4-17-2z" fill="#69635A"/>
<path transform="translate(1412,1129)" d="m0 0h47l24 3 22 5 24 8 18 8 16 8 12 7 15 10 13 10 10 9 8 7 11 11 9 11 13 17 12 19 9 17 11 27 7 25 6 36 1 10v33l-5 36-6 25-7 20-11 25-12 20-15 22-10 12-2 3h-2l-2 4-19 19-17 13-11 8-17 10-23 11-23 9-21 6-26 5-16 2-15 1h-11l-25-2-19-3-17-4-23-7-21-9-30-15-12-8-10-8-20-18-7-7-8-7-10-11-24-36-3-5v-2h-2l-11-29-9-27-5-23-4-27-1-11v-20l4-29 5-25 6-20 11-28 10-19 11-17 12-16 12-14 14-14 4-2 8 9v2h2l2 4-16 17-13 15-9 13-8 13-11 20-8 21-6 20-5 24-2 26v27l2 21 5 25 5 16 6 17 11 23 8 13 12 17 13 16 21 21 11 9 14 10 13 8 23 12 31 12 29 6 26 2h19l26-2 24-4 17-4 29-11 22-11 19-13 9-7 13-11 12-11 10-11 11-14 11-17 12-22 8-19 8-25 5-22 2-24v-29l-2-24-6-28-10-29-8-16-11-20-11-16-12-14-4-4v-2h-2l-7-8-7-7-11-9-15-11-13-8-18-10-20-9-18-6-30-7-21-3h-36l-21 3-27 6-21 7-25 11-2-1-8-17 15-8 22-8 19-6 26-5z" fill="#686259"/>
<path transform="translate(1088,176)" d="m0 0h21l17 2 21 5 13 6 12 7 13 13 5 8 5 15v18l-5 16-7 10-9 8-2 4-1 8 2 5 8 7 1 5-4 3-25 3-1 1h-38l-50-3h-13l-8 37-3 10-3-1-6-12-5-5-3-1h-8l-8 4-4 5-1 3v9l2 7v7l-3 11-5 9-4 4-6 2-5-1-2-2v-17l-3-43-2-38-11-7-11-11-6-10-2-6 1-10 8-14 9-10 9-9 14-11 18-12 25-13 27-10 23-5z" fill="#305B70"/>
<path transform="translate(1434,1170)" d="m0 0h1l1 181 7 1 2-11 8-30 8-28 9-33 7-24 6-23 7-25h4l-4 16-18 65-12 44-11 40-2 10 5 1 2 1 1-4 8-13 28-48 13-22 10-17 14-24 15-25 4-2-1 5-8 13-10 17-9 15-8 14-11 19-14 24-16 28-8 13-5 8 3 3 5-1 15-14 30-30h2l2-4h2l2-4 12-12h2l1-3 6-5 6-7 8-7 32-32 6-5h2l-1 4-13 13h-2l-2 4-5 4-1 2h-2v2h-2v2l-8 7-25 25h-2l-2 4-55 55-6 5h-2l6 8 10-7 29-16 24-14 43-24 19-11 22-13 8-4h2l-1 3-25 15-11 6-24 14-20 11-17 10-25 14-21 12-11 7 3 6 30-8 31-8 17-5 60-15 31-8h6l-2 3-29 8-102 26-12 3-12 4-17 3v8l86 2v2l-11 1h-41l-33-1-1 7 8 3 35 9 17 5 21 6 16 4 13 4 31 8 23 7 9 3v3l-21-5-15-4-21-6-26-7-14-4-34-9-24-7-18-5-2-1-1 6 8 6 19 11 24 14 17 10 28 16 20 12 12 7 16 10 10 7v2l-5-1-16-10-16-9-17-10-38-22-41-24-20-12-2-2-4 1-2 5 10 9 44 44 7 8 26 26v2l4 2 8 8v2l4 2 12 13 11 11v3l-5-2-22-22-7-8-37-37-7-8-23-23-8-7-17-17-2-3-4 1-1 5 11 18 6 11 39 69 9 17 4 6 6 2 28 4 19 3-5 5-12 9-9 6-11 7-16 8-16 7-25 10-12 3-15 2h-46l-22-4-28-8-19-7-19-9-7-4-13-8-14-10-10-9-24-26-2-4-4-2-1-3 24 1 17 1 2 2-6 7 8-8 6-4 12-12 8-7 57-57h2l1-3 8-7 12-12-1-5-3-1-33 18-24 14-45 25-19 11-14 8-19 11-5 1 1-3 21-12 24-14 21-12 27-15 28-16 16-9 18-10 1-2-2-6-9 3-18 4-13 4-25 6-20 5-18 5-27 7-14 4-28 7-5-1 1-2 26-7 41-11 15-4 48-12 42-11h3l-1-8-72-1-1-3h73v-8l-8-1-26-7-16-5-28-7-32-9-36-9-29-9-1-3 8 1 29 8 25 7 31 8 18 6 40 10 17 5 9 2 2-8-6-2-34-20-20-12-42-24-28-17-16-9-10-6v-2l9 3 24 14 28 16 11 7 27 16 26 15 23 13 9 5 4-2 6-5 7-4 6-4 7-3h4v-88l1-70 1-24zm-8 187-8 3-9 7-6 8-3 7-1 5v11l3 10 6 9 7 6 12 5 5 1h7l10-3 10-6 6-7 4-8 2-9-1-13-4-10-7-8-9-6-7-2zm-20 69-4 5-4 3v2l-3 1v2l-3 1-51 51-8 7-22 22v2h-2l-3 4v2l24 1 19 2h5l4-5 14-25 15-25 13-22 10-17 4-7-5-4zm11 6-7 10-11 19-18 30-15 26-5 10-1 4 1 1 22 1 11 1 4-6 8-28 7-26 10-36v-4zm34 0-3 2 2 9 12 44 8 31 5 19 3 9 4 1h14l21 4h5l-1-5-7-14-13-23-14-25-10-17-8-14-9-16-3-5zm-11 2-2 1-1 50v54l2 1 24 2 10 3-1-8-6-25-7-28-4-13-5-19-5-18zm-12 1-3 7-7 24-11 39-6 25v6l3 1h19l9 2 1-1 1-16v-86l-1-1z" fill="#E2E3E3"/>
<path transform="translate(299,1336)" d="m0 0 10 2 43 12 25 6 22 6 30 8 44 12 9 4 3 9 2 7 4 6v2l4 2 6 4 11 4 24 1 6 10 10 17 2 3 15 2h6l-32-32-3-2 6-1 9 10 12 11 15 15 10 2 15 1h19l-27-15-24-14-21-12-3-3 2-3 20 12 56 32 9 5 8 3 13 2 30 2 18 2 35 4 5 1-1 3-13-1-20-3-27-2-22-2h-10l9 6 25 14 22 13 2 4-2 1-43-25-14-9-13-6-23-3-18-2h-10l7 7 2 1v2l4 2 9 10 45 45 2 1h9l24-4h9l-6 8-10 9-7 8-9 12-10 7-12 7-11 7-13 8-10 6-18 8-18 6-9 6-15 2-26 1-29-1-9-2-14-2-21-7-16-5-23-11-2-4-1 3-7-4-1-4v-1l-4 2-13-8-5-4 1-3 26-6 12-3 12-20 14-24 11-20 10-17 16-27v-3l-5-5v-4l-5 3-13 13h-2l-2 4h-2l-2 4-37 37h-2v2l-8 7-4 5h-2l-2 4-34 34-4 1 2-4 19-19 7-8h2v-2l6-5 12-12 7-8h2l1-3 25-25h2l1-3 22-22 8-7h2l-4-11-5 1-11 7-11 6-28 16-16 9-14 8-15 9-24 14-14 8-9 5h-3l1-3 38-22 26-15 17-10 16-9 13-8 11-6 23-13 1-3-1-6v-2l-17 4-12 4-17 4-59 16-12 3-13 4-35 9-4-1v-2l62-17 21-5 16-5 32-8 17-5 34-8h3l-1-7h-190v-4h187v-6l-18-4-26-7-19-5-31-8-25-7-44-11-17-5zm186 69-9 3-5 1 3 3 7 1h8l4 3h2l-2-4-3-1-2-5zm20 16-1 4-2 6-6 8-4 4 1 3 9 1 3-7 4-14v-5zm8 2-3 6-4 17v2h11v-18l-1-6zm17 0-1 5 6 22 4 1h10l-8-16-7-12zm-11 1 1 25 4 1h8l-4-18-3-8zm-31 1-3 1 1 4 4 5 5-1 2-4-1-5zm0 25-6 9-10 18-14 24-16 29-14 25-1 4 10-3 16-3h16l1 3h2l5-12 7-28 6-21 9-34 3-10-2-1zm19 1-3 2-11 40-8 30-4 17-2 6v6l11-4 5-1 18-1 3-1 1-44v-48l-1-1zm13 2v88l1 2 24-3h7l2-1-1-11-7-27-5-16-5-21-3-10-1-1zm16 1 3 11 5 20 5 18 8 30 3 5 10-1h27l-1-5-8-16-12-21-11-19-8-13-3-6-4-2zm21 2v3l4 5 6 11 12 21 9 15 9 16 6 8 3 1 13-3 6-1 18-1 7-1-1-4-11-11-5-6h-2l-2-4-43-43-6-4-17-2z" fill="#E2E3E3"/>
<path transform="translate(1051,316)" d="m0 0h13l50 3 39 1v34l-3 38-4 22-4 14-6 15-7 13-8 10-8 7-6 3-5 1h-17l-13-4-18-8h-5l-7 8-8-6-8-7-28-22-15-11-8-3 4-7 4-11 10-4 4-5 4-8 2-9v-7l-2-7v-9l3-6 6-5 5-2h8l5 3 6 7 4 9 2 1 4-19 6-28z" fill="#E3B186"/>
<path transform="translate(951,1364)" d="m0 0 5 1 7 8 6 10 4 11 2 10v20l-4 17-4 9-7 10-4 4h-2v2l-11 7-10 4-19 4 6 8 2 5 15 9 7 2 16 1 38 1 11 1 5 3 3 6v8l-5 8-9 6-13 4-11 1h-23l-25-2-26-4h-3l3 11-2 8-7 6-3 1h-7l-9-4-39-19-16-8-9-6-3-5v-9l6-9 3-8 4-10 3-9 8-16 5-6 5 1 5 6v2l3 1 3 3 10 3v2l14-2 1-3 11-9 6-4 4-1 7-7 16-8 8-6 5-7 2-5v-14l-4-11v-6l7-13 7-11z" fill="#36363A"/>
<path transform="translate(730,968)" d="m0 0 19 1 2 1 5 12 12 29 9 23 3 8 14 1h99l6-1v2l5 2 11 10 3 5h-134l4 13 12 36 19 55 12 35 9 29 14 42 12 35 7 21 6 13 2 2-6 2-11 8-3-4-3-9-44 1h-36l-1-3 32-1h48l-30-90-13-37-42-123-3-1-2 4-11 14-14 18-9 11-10 13v4l7 8 8 8 9 11 11 16 6 12 5 16v6l-7-1-11-8-12-11-11-9-12-10-6-3v-58l4-2 2-4 10-13 12-15 10-13 9-11 5-7-1-6-20-50-12-31-2-5z" fill="#CE634A"/>
<path transform="translate(460,913)" d="m0 0h6l13 26 4 1 21-6 16-5 4-2h5l5 12 3 5h6l18-6 20-6 5 1 9 20 10 22 1 9-1 3h-261l-1-6-5-12-5-16 9-3 38-13 36-11z" fill="#E3E3E3"/>
<path transform="translate(357,1237)" d="m0 0 4 2 10 9 102 102 10 11 5-5 1-4-5-6-12-22-9-16-28-49-7-13 1-3 12 19 14 25 12 21 14 24 10 18 4-1 4-3-2-9-8-31-3-12-5-17-6-27 1-3 6 17 7 27 11 41 2 8v4l7-2-9-67-4-28v-7h12l3 22 2 5v-18l1-8h2l1 59 2 19 3 20 6 1 4-17 11-43 8-28 4-10 1 2-11 44-10 35-4 17 5 1 8-21 7-19 7-18 13-36 3-7 5-1h7l1 2-5 11-11 30-5 14 6-4 5-7 4-3 1-3 6-5 4-1 2-2 5-3 11-14 6-8 3-7h26l2 2-13 17-10 13-20 25-15 20 5-4 71-71v3l-14 15-58 58-11 9-9 11-3 4h27l9-2 15-9 17-10 48-28 16-9 4-2 3 1-11 7-24 14-28 16-23 14-11 7 47-1h21l1 1 13 1 4 1h2v3l-35 9-45 12-27 7-28 8-1 1-1 8 105 1 71-1 1 4h-177l-2 4 1 4 8 3 30 7 62 17 8 4v2l-17-4-29-8-23-6-41-11h-4l-4 7-5 3-3 3-6 2h-26l-11-4-8-6-4-4-4-7-3-10-2-6-1-8-22-12-10-6-25-14-21-12-25-15-27-15-21-12-8-6 2-2 14 7 24 14 25 15 26 15 20 11 17 10 16 9 13 8h4v-7l-5-5v-2l-4-2-28-28v-2l-4-2-4-4v-2l-3-1-13-13v-2l-4-2-12-12v-2l-4-2-8-9-7-6-7-8-17-17zm208 59m3 6m-1 1-4 5-4 7 1 2 7-10 1-4zm-9 14-2 5 3-3zm-3 5m124 20-22 1-54 1-9 4-29 17-3 2 1 11 16-4 39-10 13-4 48-12 9-2 2-3-1-1zm-113 3-10 10 2 5 3 5 4-2 19-11 6-3 4-4zm-42 7 1 11 7 6 4 7v10l-4 7-7 3-9-1-6-4-2-4-1-14-2-3 5-4 1-2v-8l-1-2-5 2-8 7-4 8-1 3v14l3 8 6 8 9 6 9 2h9l9-3 9-7 6-10 1-3v-15l-4-9-7-8-7-4-3-1z" fill="#CE644A"/>
<path transform="translate(1434,1170)" d="m0 0h1l1 181 7 1 2-11 8-30 8-28 9-33 7-24 6-23 7-25h4l-4 16-18 65-12 44-11 40-2 10 5 1 2 1 1-4 8-13 28-48 13-22 10-17 14-24 15-25 4-2-1 5-8 13-10 17-9 15-8 14-11 19-14 24-16 28-8 13-5 8 3 3 5-1 15-14 30-30h2l2-4h2l2-4 12-12h2l1-3 6-5 6-7 8-7 32-32 6-5h2l-1 4-13 13h-2l-2 4-5 4-1 2h-2v2h-2v2l-8 7-25 25h-2l-2 4-55 55-6 5h-2l6 8 10-7 29-16 24-14 43-24 19-11 22-13 8-4h2l-1 3-25 15-11 6-24 14-20 11-17 10-25 14-21 12-11 7 3 6 30-8 31-8 17-5 60-15 31-8h6l-2 3-29 8-102 26-12 3-12 4-17 3v8l86 2v2l-11 1h-41l-33-1-1 7 8 3 35 9 17 5 21 6 16 4 13 4 31 8 23 7 9 3v3l-21-5-15-4-21-6-26-7-14-4-34-9-24-7-18-5-2-1-1 6 8 6 19 11 24 14 17 10 28 16 20 12 12 7 16 10 10 7v2l-5-1-16-10-16-9-17-10-38-22-41-24-20-12-2-2-4 1-2 5 10 9 44 44 7 8 26 26v2l4 2 8 8v2l4 2 12 13 11 11v3l-5-2-22-22-7-8-37-37-7-8-23-23-8-7-17-17-2-3-6 2-11 6-8 1h-10l-10-2-11-5-5-5-5-3-33 18-24 14-45 25-19 11-14 8-19 11-5 1 1-3 21-12 24-14 21-12 27-15 28-16 16-9 18-10 1-2-2-6-9 3-18 4-13 4-25 6-20 5-18 5-27 7-14 4-28 7-5-1 1-2 26-7 41-11 15-4 48-12 42-11h3l-1-8-72-1-1-3h73v-8l-8-1-26-7-16-5-28-7-32-9-36-9-29-9-1-3 8 1 29 8 25 7 31 8 18 6 40 10 17 5 9 2 2-8-6-2-34-20-20-12-42-24-28-17-16-9-10-6v-2l9 3 24 14 28 16 11 7 27 16 26 15 23 13 9 5 4-2 6-5 7-4 6-4 7-3h4v-88l1-70 1-24zm-8 187-8 3-9 7-6 8-3 7-1 5v11l3 10 6 9 7 6 12 5 5 1h7l10-3 10-6 6-7 4-8 2-9-1-13-4-10-7-8-9-6-7-2z" fill="#746F67"/>
<path transform="translate(1190,777)" d="m0 0 31 2 8 3 8 6 6 5 10 15 3 6v6l-6 11-1 4-4 2-6 8-5 6v7l1 2v7l-8 11-7 9-5 6v18l-3 2v-14l-4-1-5 2h-11l-21-2-4-3v-10l-9-10-5-11-3-5-6-2 5-9 13-19 8-9 2-10 8-16 9-15z" fill="#E3B186"/>
<path transform="translate(1088,284)" d="m0 0h27l16 2 25 7 16 7 9 8 1 5-4 3-25 3-1 1h-38l-50-3h-13l-8 37-3 10-3-1-6-12-5-5-3-1h-8l-8 4-4 5-1 3v9l2 7v7l-3 11-5 9-4 4-6 2-5-1-2-2v-17l-3-43v-31l2 1v2l6 1 5-2 3-3 2-8 15-3 9-3 31-8 25-4z" fill="#353539"/>
<path transform="translate(299,1336)" d="m0 0 10 2 43 12 25 6 22 6 30 8 44 12 9 4 3 9 2 7 4 6v2l4 2 6 4 11 4 24 1 6 10 10 17 2 3 15 2h6l-32-32-3-2 6-1 9 10 12 11 15 15 10 2 15 1h19l-27-15-24-14-21-12-3-3 2-3 20 12 56 32 9 5 8 3 13 2 30 2 18 2 35 4 5 1-1 3-13-1-20-3-27-2-22-2h-10l9 6 25 14 22 13 2 4-2 1-43-25-14-9-13-6-23-3-18-2h-10l7 7 2 1v2l4 2 9 10 17 17 3 5 5 5-1 2-50-50-5-3-37-4-7-1 4 11 5 20 5 18 2 8v7l-2-2-1-9h-2l-7-22-5-21-3-10-12-1-1 25h-1l-2-25-9-1-2 1-11 40-8 30-3 9-3 4-1-3 4-17 6-21 9-34 4-10h-15l-8-5-1-6-5 3-13 13h-2l-2 4h-2l-2 4-37 37h-2v2l-8 7-4 5h-2l-2 4-34 34-4 1 2-4 19-19 7-8h2v-2l6-5 12-12 7-8h2l1-3 25-25h2l1-3 22-22 8-7h2l-4-11-5 1-11 7-11 6-28 16-16 9-14 8-15 9-24 14-14 8-9 5h-3l1-3 38-22 26-15 17-10 16-9 13-8 11-6 23-13 1-3-1-6v-2l-17 4-12 4-17 4-59 16-12 3-13 4-35 9-4-1v-2l62-17 21-5 16-5 32-8 17-5 34-8h3l-1-7h-190v-4h187v-6l-18-4-26-7-19-5-31-8-25-7-44-11-17-5zm186 69-9 3-5 1 3 3 7 1h8l4 3h2l-2-4-3-1-2-5zm20 16-1 4-2 6-6 8-4 4 1 3 9 1 3-7 4-14v-5zm8 2-3 6-4 17v2h11v-18l-1-6zm17 0-1 5 6 22 4 1h10l-8-16-7-12zm-11 1 1 25 4 1h8l-4-18-3-8zm-31 1-3 1 1 4 4 5 5-1 2-4-1-5z" fill="#6D6860"/>
<path transform="translate(1247,834)" d="m0 0 5 2 4 7v44l-8 9-4 4v11l7 7-1 9-6 5v91l-4 1h-12l-16-1v-89l-6-8-1-6 6-7 3-2v-18l10-12 10-14v-7l-1-2v-7l10-12z" fill="#CE6047"/>
<path transform="translate(330,1026)" d="m0 0 10 1 14 4 2 3 1 50v141l-5-1-6-4-7 1-2-6-1-4h-2l-2-3-1-8-2-3-1-169z" fill="#353539"/>
<path transform="translate(378,1139)" d="m0 0 4 3 11 4 6 1h234l26 1 25-1-1 6-5 5-8 4-3 1-23 2h-227l-16-1-14-5-6-7-3-6v-3l-2-1z" fill="#2E3E4A"/>
<path transform="translate(951,1364)" d="m0 0 5 1 7 8 6 10 4 11 2 10v20l-4 17-4 9-7 10-4 4h-2v2l-11 7-10 4-13 3h-9l-7-8-4-8v-9l8-8 16-8 8-6 5-7 2-5v-14l-4-11v-6l7-13 7-11z" fill="#CD6047"/>
<path transform="translate(670,878)" d="m0 0 2 3 5 7 6 4v2l4 2 19 14 14 10 15 10 18 11 9 6 7 4 12 9 6 8 6 1v1h-11l-32-2-1 2-23-1-2-3-14-2-6-4-10-9-8-8-8-11-7-12-4-11-2-14v-9l3-7z" fill="#676158"/>
<path transform="translate(552,1410)" d="m0 0 77 44 9 5 8 3 13 2 30 2 18 2 35 4 5 1-1 3-13-1-20-3-27-2-22-2h-10l9 6 25 14 22 13 2 4-2 1-43-25-14-9-13-6-23-3-18-2h-10l7 7 2 1v2l4 2 9 10 17 17 3 5 5 5-1 2-50-50-5-3-37-4-7-1 4 11 5 20 5 18 2 8v7l-2-2-1-9h-2l-7-22-5-21-3-10-12-1-1 25h-1l-2-25-9-1-2 1-11 40-8 30-3 9-3 4-1-3 4-17 6-21 9-34 4-10-14-1 1-2h7v-1l6-1 6-20 2 3-1 8-3 11h11l-1-24h-4v-2h6l2 4v23l12 1-7-24v-2h-5v-1h7l7-1 2-1 6 10 10 17 2 3 15 2h6l-32-32-3-2 6-1 9 10 12 11 15 15 10 2 15 1h19l-27-15-24-14-21-12-3-3zm-22 13-1 5 6 22 4 1h10l-8-16-7-12z" fill="#D8D8D7"/>
<path transform="translate(1247,834)" d="m0 0 5 2 4 7v44l-8 9-4 4v11l7 7-1 9-5 4h-35l-4-5-1-6 6-7 3-2v-18l10-12 10-14v-7l-1-2v-7l10-12z" fill="#686158"/>
<path transform="translate(446,917)" d="m0 0 9 1h3l-4 5-6 5-9 11-9 9-8 11-8 10-2 2-8-1-21-5-29-7-14-4-2-3 36-12 42-13z" fill="#FCFCFC"/>
<path transform="translate(434,950)" d="m0 0h7l43 10 7 12 6 10-1 2-28 1h-104l1-4 15-10 2-1h8l18 3h6l7-8 7-10z" fill="#FDFDFD"/>
<path transform="translate(878,1212)" d="m0 0 10 10 11 4 11 1 3 2-2 13-6 23-3 12-3 5-4 1-12-3-20-10-9-8-1-4 5-10 8-22 3-6 8-7z" fill="#353539"/>
<path transform="translate(524,927)" d="m0 0h5l5 12 2 4-1 3 12 25 5 9-1 4h-49l-3-3-6-12-7-13-4-10-1-5 39-12z" fill="#FDFDFD"/>
<path transform="translate(581,932)" d="m0 0 5 1 9 20 10 22 1 9-3 1-45-1-5-5-11-22-4-12 13-4z" fill="#FDFDFD"/>
<path transform="translate(1428,1362)" d="m0 0h14l9 4 8 7 5 8 2 8v8l-2 9-7 9-7 6-9 3h-12l-9-3-10-9-5-10-1-5v-10l4-11 7-8 10-5zm3 16-8 4-3 5v10l4 8 6 3h10l5-3 3-3 1-4v-11l-3-6-6-3z" fill="#706B62"/>
<path transform="translate(1174,834)" d="m0 0h11l10 4 8 8 4 9 1 9-2 7-7 9-12 7-9 1-12-4-8-9-4-8v-14l5-10 6-5z" fill="#666057"/>
<path transform="translate(815,1506)" d="m0 0 2 1v4h2l4 5 9 4 12 4 4 1 15 3 13 2 17 5h9l3 2-3 1 3 11-2 8-7 6-3 1h-7l-9-4-39-19-16-8-9-6-3-5v-9z" fill="#666057"/>
<path transform="translate(962,1337)" d="m0 0 1 4-4 9v5l9 8 3 3 6 10 5 12 4 14 1 7v11l-4 16-5 13-9 13-6 7-13 10-17 8-11 4h-2l-6-8v-2l-2-1 16-3 10-3 10-5 4-3h2v-2l7-6 6-9 5-15 2-10v-20l-4-16-6-12-6-8-3-3-5 1-2 1 2-4 4-5 4-11z" fill="#6A645B"/>
<path transform="translate(875,1357)" d="m0 0h2l-1 13-8 27-8 21-9 19-3 2-4-3-3-15v-16l4-17 8-11 14-15z" fill="#CE6047"/>
<path transform="translate(876,1342)" d="m0 0h3l1 2v14l-3 12h-1l1-13-11 7-14 15-6 9-4 19v14l3 15 4 2 3-3-1 5-3 5 2 4 8 8 11 7v1h-8l1 2 13 2v1h-12l-11-4-5-5-4-5-3-2 6-1 1 3 1-5h-6l-3-4-6-21-1-14 2-16 5-15 8-13 7-9 15-12z" fill="#69635A"/>
<path transform="translate(552,1410)" d="m0 0 77 44 9 5 8 3 13 2 30 2 18 2 35 4 5 1-1 3-13-1-20-3-27-2-22-2h-10l9 6 25 14 22 13 2 4-2 1-43-25-14-9-13-6-23-3-18-2h-10l7 7 2 1v2l4 2 9 10 17 17 3 5 5 5-1 2-50-50-5-3-5-1v-1l5-1h12l15 1h19l-27-15-24-14-21-12-3-3z" fill="#DADADA"/>
<path transform="translate(1200,797)" d="m0 0h13l8 3 6 7 4 9v13l-5 9-12-12-9-4-9-2-13-2-1-4 4-8 7-6z" fill="#676056"/>
<path transform="translate(706,1281)" d="m0 0 3 1-11 7-24 14-28 16-23 14-11 7 47-1h21l1 1 13 1 4 1h2v3l-35 9-45 12-27 7-24 7-5-1 1-2 30-8 23-6 13-4 48-12 9-2 1-2-32 1-55 1v-2l3-1-1-2 46-27 29-17 21-12z" fill="#D9D9D9"/>
<path transform="translate(465,913)" d="m0 0 2 1 11 24 2 7 3 10-10-1-16-3-18-3-1-4 10-12 7-8z" fill="#FDFDFD"/>
<path transform="translate(1e3 1263)" d="m0 0h18l9 1-4 7-14 15-11 12h-14l-3-1 1-5 8-15 5-9z" fill="#353539"/>
<path transform="translate(1545,1200)" d="m0 0h2l-1 5-8 13-10 17-9 15-8 14-11 19-14 24-16 28-8 13-5 8 5 6 2 2v2l4 4 1 6 3 7v20l-4 9-4 6-8 6-4 2-3-1 10-6 5-6 4-8 2-9-1-13-4-10-6-7-9-6-9-3-12-1v-1l23-1 2 1 1-4 8-13 28-48 13-22 10-17 14-24 15-25z" fill="#6E6963"/>
<path transform="translate(1214,1022)" d="m0 0 14 1h17l5 4 1 2v7l-5 6h-36l-4-5-1-7 6-7z" fill="#676159"/>
<path transform="translate(517,1097)" d="m0 0h21l10 1h10l4 3v7l-3 4-5 1-10-1-2 1h-20l-12-1-3-3v-3l-2-1 3-6z" fill="#2E3E4A"/>
<path transform="translate(334,954)" d="m0 0 11 3 29 8 5 2-4 4-13 10-4 3-9 1-5-2-6-14-4-13z" fill="#FDFDFD"/>
<path transform="translate(1243,912)" d="m0 0 8 6-1 9-5 4h-35l-4-5-1-6 6-7 32 1z" fill="#69635A"/>
<path transform="translate(938,1382)" d="m0 0 1 2-3 6v6l4 11v14l-4 8-7 8-10 6-12 6-7 6 2-4 4-5 5-4 4-6 16-36 3-12z" fill="#666057"/>
<path transform="translate(1472,1410)" d="m0 0 8 6 18 10 10 6 34 20 28 16 20 12 12 7 16 10 10 7v2l-5-1-16-10-16-9-17-10-38-22-41-24-20-12-4-4z" fill="#E1E1E1"/>
<path transform="translate(1465,1422)" d="m0 0 5 2 51 51 7 8 26 26v2l4 2 8 8v2l4 2 12 13 11 11v3l-5-2-22-22-7-8-37-37-7-8-23-23-8-7-17-17-4-5z" fill="#D5D4D2"/>
<path transform="translate(1476,1401)" d="m0 0 13 4 31 8 17 5 21 6 16 4 13 4 31 8 23 7 9 3v3l-21-5-15-4-21-6-26-7-14-4-34-9-24-7-18-5-2-1z" fill="#E2E3E3"/>
<path transform="translate(1491,1177)" d="m0 0 3 1-4 16-18 65-12 44-11 40-2 10 3 1-12-1v-1h5l2-11 8-30 8-28 9-33 7-24 6-23 7-25z" fill="#C6C5C3"/>
<path transform="translate(1591,1235)" d="m0 0h2l-1 4-13 13h-2l-2 4-5 4-1 2h-2v2h-2v2l-8 7-25 25h-2l-2 4-55 55-6 5h-2l2 5-3-2v-2l-4-2 4-2 16-15 30-30h2l2-4h2l2-4 12-12h2l1-3 6-5 6-7 8-7 32-32z" fill="#E3E4E3"/>
<path transform="translate(1289,1171)" d="m0 0 4 2 8 15-16 12-7 5-3-1-3-5-5-8v-4l11-8z" fill="#676158"/>
<path transform="translate(1434,1170)" d="m0 0h1l1 182h-5v-87l1-70 1-24z" fill="#E3E4E4"/>
<path transform="translate(484,1401)" d="m0 0 2 4-5 3-30 7-12 4-17 4-59 16-12 3-13 4-35 9-4-1v-2l62-17 21-5 16-5 32-8 17-5 34-8h3z" fill="#DBDCDB"/>
<path transform="translate(1645,1335)" d="m0 0h6l-2 3-29 8-102 26-12 3-12 4-17 3-2 3-1-7 2 1 30-8 31-8 17-5 60-15z" fill="#DCDCDC"/>
<path transform="translate(321,1282)" d="m0 0 10 4 17 10 44 26 21 12 18 10 17 10 16 9 13 8 3 1-1 3-16-8-27-15-26-15-14-8-22-13-25-14-21-12-8-6z" fill="#DDDDDC"/>
<path transform="translate(1391,1405)" d="m0 0 4 1v2l-9 3-18 4-13 4-25 6-20 5-18 5-27 7-14 4-28 7-5-1 1-2 26-7 41-11 15-4 48-12 23-6z" fill="#E3E3E3"/>
<path transform="translate(293,1393)" d="m0 0h188l1 4h-189z" fill="#E3E4E4"/>
<path transform="translate(299,1336)" d="m0 0 10 2 43 12 25 6 22 6 30 8 44 12 7 3v2l-18-4-26-7-19-5-31-8-25-7-44-11-17-5z" fill="#D4D4D3"/>
<path transform="translate(1217,1335)" d="m0 0 8 1 29 8 25 7 31 8 18 6 40 10 17 5 9 2-1 3-8-1-26-7-16-5-28-7-32-9-36-9-29-9z" fill="#DDDDDC"/>
<path transform="translate(357,1237)" d="m0 0 4 2 10 9 102 102 11 12-1 5-4-5-3-3v-2l-4-2-28-28v-2l-4-2-4-4v-2l-3-1-13-13v-2l-4-2-12-12v-2l-4-2-8-9-7-6-7-8-17-17z" fill="#D9D9D8"/>
<path transform="translate(1397,1415)" d="m0 0 3 1-1 3-33 18-24 14-45 25-19 11-14 8-19 11-5 1 1-3 21-12 24-14 21-12 27-15 28-16 16-9 18-10z" fill="#CECECC"/>
<path transform="translate(1626,1281)" d="m0 0h2l-1 3-25 15-11 6-24 14-20 11-17 10-25 14-21 12-11 7-2 1-2-5h3l14-9 24-13 24-14 43-24 19-11 22-13z" fill="#C2C1BF"/>
<path transform="translate(1077,423)" d="m0 0 7 1 18 5 11 1h17l-1 4-7 9-6 2h-9v-2l-4-2-5-3-7-2-3 1-7-5-4-7z" fill="#CD6047"/>
<path transform="translate(471,1410)" d="m0 0 7 2v1h-7l1 9 1 2-7 3-9 6-11 6-28 16-16 9-14 8-15 9-24 14-14 8-9 5h-3l1-3 38-22 26-15 17-10 16-9 13-8 11-6 23-13 1-3-1-6z" fill="#BAB9B6"/>
<path transform="translate(512,1422)" d="m0 0h6l2 4v23l7 1v1l-20 1-2 1-11 40-8 30-3 9-3 4-1-3 4-17 6-21 9-34 4-10-14-1 1-2h7v-1l6-1 6-20 2 3-1 8-3 11h11l-1-24h-4z" fill="#95918C"/>
<path transform="translate(564,1390)" d="m0 0 104 1 71-1 1 4h-176z" fill="#E3E4E4"/>
<path transform="translate(1088,284)" d="m0 0h27l16 2 25 7 16 7 1 2-7-2-4-1-12-4-7-3-24-4h-24l-22 2-15 2-25 5-26 7-5 2-3-1 6-2v-2l16-5 28-7 25-4z" fill="#2E3D49"/>
<path transform="translate(1240,1282)" d="m0 0 9 3 24 14 28 16 11 7 27 16 26 15 23 13 11 6-2 4-1-2-6-2-34-20-20-12-42-24-28-17-16-9-10-6z" fill="#CDCCCA"/>
<path transform="translate(475,1436)" d="m0 0 2 4-8 7-9 9h-2l-2 4h-2l-2 4-37 37h-2v2l-8 7-4 5h-2l-2 4-34 34-4 1 2-4 19-19 7-8h2v-2l6-5 12-12 7-8h2l1-3 25-25h2l1-3 22-22z" fill="#E5E6E6"/>
<path transform="translate(1459,1426)" d="m0 0 1 2 1 4 10 17 6 11 39 69 3 6-1 2-8-13-3-3-36-63-10-17-4-7v-2l-8 2 2 9 4 14-1 6-2-1-6-20-1-8h-5v-1l10-2z" fill="#DADBDB"/>
<path transform="translate(885,1200)" d="m0 0 1 2 9 3 16 8 5 3-1 7-5 2h-9l-13-4-9-10v-2l5-2z" fill="#E3E4E4"/>
<path transform="translate(1215,896)" d="m0 0 23 1 6 1v14l-1 2h-27l-3-2 1-1v-14z" fill="#CE6148"/>
<path transform="translate(1050,315)" d="m0 0h21l50 3 31 1v1h-38l-50-3h-13l-8 37-3 10-3-1-6-12-5-5-3-1h-8l-8 4-4 5-1 3v9l2 7v7l-3 11-5 9-4 4-6 2-5-1-2-2 1-4 3 3 5 1 6-5 6-13 1-10-2-8v-11l5-9 9-4 9-1 7 3 6 7 3 6 3-8 5-24 3-10z" fill="#6A6056"/>
<path transform="translate(1375,1178)" d="m0 0 3 1 5 16 8 30 8 32 22 84v7l-5-5 1-3-4-17-5-17-8-33-5-17-9-35-6-21-4-17z" fill="#BFBEBC"/>
<path transform="translate(330,1026)" d="m0 0 10 1 14 4 2 3 1 50v141h-4v-12l1-17v-135l-1-27-12-2h-11v22h-1l-1-26z" fill="#2E3E4A"/>
<path transform="translate(527,1368)" d="m0 0 8 4 2 4v10l-4 7-8 4-9-1-4-2v-4h-2l-2-6 1-4 6 2 4 1 5-1 3-5z" fill="#6C675E"/>
<path transform="translate(1404,1422)" d="m0 0 5 3-5 5-5 4-4 5-8 7-46 46-8 7-16 16-2-1 3-4 6-7 56-56h2l1-3 8-7 12-12z" fill="#D8D9D8"/>
<path transform="translate(1545,1200)" d="m0 0h2l-1 5-8 13-10 17-9 15-8 14-11 19-14 24-4 5-1-5 17-29 13-22 10-17 14-24 8-13z" fill="#D0D0CF"/>
<path transform="translate(689,1341)" d="m0 0h5l4 1h2v3l-35 9-45 12-27 7-24 7-5-1 1-2 30-8 23-6 13-4 48-12 9-2z" fill="#D4D4D3"/>
<path transform="translate(560,1401)" d="m0 0 6 3 31 7 28 8 37 10 8 4v2l-17-4-29-8-23-6-26-7-18-5z" fill="#E2E3E3"/>
<path transform="translate(1275,1235)" d="m0 0 4 2 5 4v2l4 2 20 20 5 6 28 28 8 7 2-1 7 8 1 7-7-6-15-14-7-7-7-8-8-7v-2l-4-2-23-23v-2l-4-2-8-9z" fill="#E3B38A"/>
<path transform="translate(428,1243)" d="m0 0 3 3 13 21 15 27 12 21 11 19 9 16 2 2-3 2-6-8-12-22-9-16-28-49-7-13z" fill="#D6D7D6"/>
<path transform="translate(603,1239)" d="m0 0 8 1 5-1-6 7-15 24-3 4-7 2-1 3h-2l-1 4-4 2 8-14 13-23z" fill="#706A62"/>
<path transform="translate(1210,1392)" d="m0 0h57l28 1 7 1v2h-92z" fill="#E7E8E8"/>
<path transform="translate(328,1586)" d="m0 0v3l-5 3h-2l-2 4-4 4h-2v2h-2l-2 6-1 5 2 7 9 11 13 8v2l-6-2-14-8-7-6-5-9 1-7 6-8 8-8z" fill="#FDFDFD"/>
<path transform="translate(1465,1422)" d="m0 0 5 2 51 51 2 6-4-2-27-27-8-7-17-17-4-5z" fill="#85817A"/>
<path transform="translate(552,1410)" d="m0 0 77 44 1 3-6-1-25-14-24-14-21-12-3-3z" fill="#C7C6C4"/>
<path transform="translate(894,819)" d="m0 0h12l5 5-1 9-5 3h-7l-5-2-3-4v-7z" fill="#666057"/>
<path transform="translate(1402,1449)" d="m0 0 2 1-1 6-21 35-15 26-3 5-2 1-2 5h-2l1-6 14-24 17-29z" fill="#CBCBC9"/>
<path transform="translate(706,1281)" d="m0 0 3 1-11 7-24 14-28 16-23 14-3 2-9 2 3-3 72-42 16-9z" fill="#B8B7B4"/>
<path transform="translate(299,1336)" d="m0 0 10 2 43 12 25 6 6 2-1 3-17-4-48-12-17-5z" fill="#E0E0E0"/>
<path transform="translate(1491,1177)" d="m0 0 3 1-4 16-18 65-4-2 7-24 8-30 7-25z" fill="#E4E5E5"/>
<path transform="translate(1217,1335)" d="m0 0 8 1 29 8 25 7 20 5 2 2h-5l-3 1-30-8-16-4-29-9z" fill="#DFDFDF"/>
<path transform="translate(1298,1429)" d="m0 0m-3 1 4 1v2l-27 7-21 6-28 7-5-1 1-2 26-7 41-11z" fill="#D9D9D9"/>
<path transform="translate(475,1247)" d="m0 0 2 2 5 15 7 27 11 41 3 13-3 1-6-21-5-19-3-12-5-17-6-27z" fill="#D0D0CF"/>
<path transform="translate(321,1282)" d="m0 0 10 4 17 10 22 13 18 11 2 4-6-2-17-10-25-14-20-12-2-3z" fill="#C8C7C5"/>
<path transform="translate(1575,1430)" d="m0 0 8 1 28 7 30 9 9 3v3l-21-5-15-4-21-6-16-4z" fill="#D7D8D6"/>
<path transform="translate(1476,1390)" d="m0 0 87 2v2l-11 1h-41l-33-1-2 2z" fill="#E3E4E4"/>
<path transform="translate(555,1242)" d="m0 0 1 2-11 44-10 35-4 17h-3l4-17 11-43 8-28z" fill="#C8C8C6"/>
<path transform="translate(673,1465)" d="m0 0 29 2 24 3 21 3-1 3-13-1-20-3-27-2-22-2-3-2z" fill="#BBBAB9"/>
<path transform="translate(845,1446)" d="m0 0 4 2 9 9 11 7v1h-8l1 2 13 2v1h-12l-11-4-5-5-4-5-3-2 6-1 1 3 1-5h-5z" fill="#E3E4E4"/>
<path transform="translate(1543,1361)" d="m0 0 7 1v2l-44 11-12 4-17 3-2 3-1-7 2 1 30-8 31-8z" fill="#D0D0CE"/>
<path transform="translate(652,1466)" d="m0 0 2 1 4 4 23 13 21 12 9 6v4l-8-4-19-11-17-10-14-9-6-3 2-2z" fill="#DDDEDD"/>
<path transform="translate(665,1241)" d="m0 0v3l-14 15-58 58-8 7h-2l2-5 6-4z" fill="#E2E3E2"/>
<path transform="translate(809,1336)" d="m0 0h47l2 2-3 1-41 1h-36l-1-3z" fill="#DEDFDE"/>
<path transform="translate(1252,1524)" d="m0 0 24 1 17 1 2 2-4 2-2-1h-22l1 7 7 11-1 2-16-17-1-3-4-2z" fill="#FCFCFC"/>
<path transform="translate(1080,328)" d="m0 0h15l5 2 2 5-1 1-19 1-5 2-5-1v-5l5-4z" fill="#676056"/>
<path transform="translate(544,1418)" d="m0 0 3 1 7 8 13 12 17 17-9 2-17-2v-1h10l7-2-32-32-3-2z" fill="#E4E5E5"/>
<path transform="translate(484,1449)" d="m0 0 3 1-2 6-12 21-14 24-5 9-5 2 8-16 10-17 16-27z" fill="#BFBEBB"/>
<path transform="translate(1417,1459)" d="m0 0h3l-2 11-10 35-4 16h-3l-1-3 8-30 8-28z" fill="#D6D6D5"/>
<path transform="translate(1320,1393)" d="m0 0h73v4l-72-1z" fill="#E2E3E3"/>
<path transform="translate(1569,1468)" d="m0 0 14 8 10 6 9 5 16 10 10 7v2l-5-1-16-10-16-9-15-9v-3l-7-4z" fill="#DEDFDE"/>
<path transform="translate(1092,422)" d="m0 0h19l23 1v3h-3v2l-7 1h-18v-1h-5l-3 1v-3l-7-2z" fill="#E3E4E4"/>
<path transform="translate(361,1435)" d="m0 0h2l-1 3-16 6-20 5-23 6-4-1v-2z" fill="#D6D6D5"/>
<path transform="translate(1397,1415)" d="m0 0 3 1-1 3-33 18-24 14-1-3 10-7 14-8 31-17z" fill="#DBDCDC"/>
<path transform="translate(1412,1428)" d="m0 0 5 2 6 2 10 2v1l-5 1-7 22-3 2-1-4 6-22-6-1-10 16-2 3h-2l1-6 8-14v-3z" fill="#E0E1E1"/>
<path transform="translate(330,1026)" d="m0 0 10 1 14 4 2 3 1 37-2 1-1-11-1-27-12-2h-11v22h-1l-1-26z" fill="#34424B"/>
<path transform="translate(357,1237)" d="m0 0 4 2 10 9 36 36v5l-3-2v-2l-4-2-8-9-7-6-7-8-17-17z" fill="#D7D7D6"/>
<path transform="translate(1087,347)" d="m0 0h5l1 4v3l3 2v7l-3 3-6 1-4-4-1-2v-6z" fill="#353539"/>
<path transform="translate(1584,1392)" d="m0 0h73l1 3h-63l-12-1z" fill="#E3E4E4"/>
<path transform="translate(1138,329)" d="m0 0 11 1 4 3v7l-5 1-3-1-12-1-1-1v-6z" fill="#716055"/>
<path transform="translate(535,1421)" d="m0 0 4 4 6 11 9 15 15 2 1 2-3 1h-17l-13-2v-1h11l-1-5-13-24z" fill="#E2E2E2"/>
<path transform="translate(1481,1308)" d="m0 0 1 3-1 5-16 27-7 11v3l1 2-5-2-2-2h2l1-4 8-13 14-24z" fill="#AEACA8"/>
<path transform="translate(1050,315)" d="m0 0h21l50 3 31 1v1h-38l-50-3h-13l-6 28-2-1 1-8 4-17z" fill="#666057"/>
<path transform="translate(1343,1342)" d="m0 0 5 1 17 10 23 13 11 6-2 4-1-2-6-2-34-20-13-8z" fill="#A4A29D"/>
<path transform="translate(983,296)" d="m0 0h6l2 2 1 10-3 5h-6l-4-4v-9z" fill="#CF634A"/>
<path transform="translate(727,1334)" d="m0 0 4 1v3h5l-4 2-4 1-19 1-9 2v-2l-5 1-1-1-13-1-1-2 33-1 12-3z" fill="#89857E"/>
<path transform="translate(1674,1593)" d="m0 0 5 2 7 6 5 8v8l-5 9-7 6v-3l3-1 1-4 1-3v-9l-2-9-1-3h-2v-2l-5-2z" fill="#FDFDFD"/>
<path transform="translate(1404,1422)" d="m0 0 5 3-5 5-5 4-4 5-8 7-18 18h-2l1-3h2l1-4 7-8 4-2 1-3 8-7 12-12z" fill="#CACAC8"/>
<path transform="translate(1375,1178)" d="m0 0 3 1 5 16 8 30 2 11h-3l-6-21-4-15-4-17z" fill="#DEDFDF"/>
<path transform="translate(623,1361)" d="m0 0 6 1-1 2-35 9-24 7-5-1 1-2 30-8 23-6z" fill="#C3C2BF"/>
<path transform="translate(398,1512)" d="m0 0h3v3h-2l-2 4-34 34-4 1 2-4 19-19 7-8h2v-2l6-5z" fill="#DCDDDC"/>
<path transform="translate(371,1478)" d="m0 0 3 1-4 4-16 9-19 11-9 5h-3l1-3 38-22z" fill="#BBBAB8"/>
<path transform="translate(1645,1335)" d="m0 0h6l-2 3-29 8-20 5-1-4 42-11z" fill="#E4E5E5"/>
<path transform="translate(1485,1478)" d="m0 0h2l8 14 14 25 8 14 2 6-4-4-5-9-3-3-16-28-2-6-4-7z" fill="#BBBAB7"/>
<path transform="translate(1127,852)" d="m0 0 6 1 3 4-1 6-2 3 1 3-5-2-11-7 4-1 2-5z" fill="#736A5E"/>
<path transform="translate(983,294)" d="m0 0h7l4 5 1 4-3 9-4 4-5 1-5-2-1-2-1 13h-1l-1-22h2l2-6zm0 2-4 4v9l4 4h6l3-5-1-10-2-2z" fill="#686259"/>
<path transform="translate(1211,931)" d="m0 0 4 1v90l-3 1v-89z" fill="#E3B38A"/>
<path transform="translate(613,1460)" d="m0 0 29 1 17 3 14 1v1l-21 1-7 1-10-3-18-2-4-2z" fill="#8B8884"/>
<path transform="translate(494,1366)" d="m0 0 1 2-2 6v14l3 8 6 8 10 6 7 1h9l9-3 8-6 4-4-2 5-9 8-5 2h-17l-9-3-12-9-4-9-2-10 1-6z" fill="#E3B186"/>
<path transform="translate(428,1243)" d="m0 0 3 3 13 21 15 27 4 7-1 2-8-13-3-3-16-28-7-13z" fill="#ACADAB"/>
<path transform="translate(804,1519)" d="m0 0h3v3l-9 1-12 2-13 1h-7l-4-1h-7l1-2 5-1z" fill="#FDFDFD"/>
<path transform="translate(939,720)" d="m0 0h9l3 4 1 6-9 3-7-3v-6z" fill="#D0684D"/>
<path transform="translate(1141,347)" d="m0 0 3 1v8l4 4-1 4h-2l-2 5h-4l-3-5v-7l3-7z" fill="#95604F"/>
<path transform="translate(491,1489)" d="m0 0 2 8-7 26-3 9-3 4-1-3 4-17 6-21z" fill="#DCDCDB"/>
<path transform="translate(1341,1447)" d="m0 0m-2 1h2l-1 4-25 14-14 8h-5v-2l14-8 11-6z" fill="#CDCCCA"/>
<path transform="translate(677,1434)" d="m0 0 10 2 29 8 17 5-1 3-37-10-14-4-4-1z" fill="#DADAD9"/>
<path transform="translate(504,1450)" d="m0 0 3 2-2 1-11 40h-3l1-10 7-25 3-7z" fill="#D6D7D6"/>
<path transform="translate(1506,1269)" d="m0 0 1 2-11 19-13 22-2-2 1-5 21-35z" fill="#DEDEDE"/>
<path transform="translate(552,1410)" d="m0 0 14 8 11 6v2l10 6 18 11-2 1-25-14-24-14-3-3z" fill="#AFADA9"/>
<path transform="translate(471,1410)" d="m0 0 7 2v1h-7l1 9 1 2-7 3-9 6-11 6-9 5-3-1 6-5 23-13 6-4-1-8z" fill="#B6B4B1"/>
<path transform="translate(1240,1282)" d="m0 0 9 3 24 14 10 6 4 5-5-1-20-12-22-13z" fill="#C2C1BF"/>
<path transform="translate(1455,1308)" d="m0 0 1 4-2 5v7l-6 23-1 6 3 1-12-1v-1h5l2-11 8-30z" fill="#ddd"/>
<path transform="translate(1539,1452)" d="m0 0 5 1 24 14 4 4 5 3-1 2-5-2-23-13-6-4-1-4z" fill="#D2D2D0"/>
<path transform="translate(630,1456)" d="m0 0 10 4-4 2-22-1v1l-15-1h-12v-3h14v-1h26z" fill="#E7E8E8"/>
<path transform="translate(919,769)" d="m0 0h8l3 5-1 5-3 2h-8l-2-3v-7z" fill="#CF674C"/>
<path transform="translate(706,1281)" d="m0 0 3 1-11 7-36 21-2-1 7-6 26-15z" fill="#CFCFCE"/>
<path transform="translate(475,1436)" d="m0 0 2 4-8 7-9 9h-2l-2 4h-2l-2 4-5 5h-2v-2h2l1-5 19-19z" fill="#D5D6D5"/>
<path transform="translate(1511,1348)" d="m0 0 3 1-25 14-16 10-2 1-2-5h3l14-9 17-9 5-1z" fill="#CFCFCD"/>
<path transform="translate(1462,1364)" d="m0 0 4 2 3 2 2 6h2l3 11v17l-4 1-1-20-4-9-1-5z" fill="#6A645C"/>
<path transform="translate(432,1372)" d="m0 0 8 1 33 9 7 3v2l-18-4-26-7-5-2z" fill="#D5D5D5"/>
<path transform="translate(1391,1405)" d="m0 0 4 1v2l-9 3-18 4-4 1-9 1-9 2-4-1 25-7z" fill="#E0E0E0"/>
<path transform="translate(1280,1554)" d="m0 0 4 1v2l4 1 1 3h2v2h2v2l4 2 6 4 7 5 5 3 6 5-1 2-13-8-14-10-10-9-3-3z" fill="#FDFDFD"/>
<path transform="translate(490,1298)" d="m0 0 2 4 8 30 3 13-3 1-6-21-5-19v-6z" fill="#DCDDDC"/>
<path transform="translate(1466,1447)" d="m0 0h2l2 4 5 5 9 17 4 10 3 5-1 3-14-24-8-14-2-3z" fill="#DEDFDE"/>
<path transform="translate(1077,423)" d="m0 0 7 1 18 5 11 1v1l-8 1 1 2-6-2h-16l-4-2-3-5z" fill="#676056"/>
<path transform="translate(560,1401)" d="m0 0 6 3 31 7 2 1v3l2 1-10-2-34-9z" fill="#BABAB9"/>
<path transform="translate(904,1228)" d="m0 0h8l1 4-6 26-4 17-3 6-4-1h3l2-11 2-9 5-18 1-8-1-4z" fill="#2E3E4A"/>
<path transform="translate(1476,1401)" d="m0 0 13 4 24 6-1 3-10-1-25-7-2-1z" fill="#D1D1D0"/>
<path transform="translate(1544,1327)" d="m0 0 2 1-4 2-1 4-20 11-5 3-7 2-5 2v-2l25-14z" fill="#DDDEDD"/>
<path transform="translate(895,822)" d="m0 0h10l2 2v5l-2 3-7 1-5-3v-6z" fill="#CE6047"/>
<path transform="translate(1111,1519)" d="m0 0h24l52 1v1l-15 1-8 1-25-1-7-1h-20z" fill="#FDFDFD"/>
<path transform="translate(939,718)" d="m0 0h9l5 4 1 8-5 4h-11l-5-5v-6l4-4zm0 2-3 4v6l7 3 9-3-2-8-2-2z" fill="#686056"/>
<path transform="translate(1262,1347)" d="m0 0 9 2 28 7 2 2h-5l-3 1-30-8-2-1z" fill="#E0E1E0"/>
<path transform="translate(1275,1235)" d="m0 0 4 2 5 4v2l4 2 18 18h-3l-4-1-11-11v-2l-4-2-8-9z" fill="#E5D6C8"/>
<path transform="translate(1575,1430)" d="m0 0 8 1 24 6 3 2-2 3-31-8z" fill="#E0E0E0"/>
<path transform="translate(1491,1177)" d="m0 0 3 1-4 16-5 18-4 1 2-10 7-25z" fill="#E1E2E1"/>
<path transform="translate(321,1282)" d="m0 0 10 4 17 10 2 2-2 3-15-8-11-7-2-3z" fill="#D0CFCD"/>
<path transform="translate(999,365)" d="m0 0 3 1 2 7v7l-3 11-5 9-4 4-6 2-5-1-2-2 1-4 3 3 5 1 6-5 6-13 1-10z" fill="#916050"/>
<path transform="translate(1402,1449)" d="m0 0 2 1-1 6-12 20-4 4h-2l-1 3-1-2 16-27z" fill="#ABAAA6"/>
<path transform="translate(553,1456)" d="m0 0 4 1 5 7 6 11 8 14-1 3-4-6-4-4-10-18z" fill="#BDBCBA"/>
<path transform="translate(597,1341)" d="m0 0h8l1 2h-4v2l-6 1-28-1v-2l2-1z" fill="#767169"/>
<path transform="translate(1464,1370)" d="m0 0 4 4 4 9v20l-4 9-4 6-8 6-4 2-3-1 10-6 5-6 4-8 2-9-1-13-4-10z" fill="#E3E4E4"/>
<path transform="translate(1472,1410)" d="m0 0 8 6 16 9-1 2 4 3-1 2-10-6-13-8-4-4z" fill="#E6E6E6"/>
<path transform="translate(604,1479)" d="m0 0 4 1 6 5 7 8 7 7 3 5 5 5-1 2-31-31z" fill="#B9B8B5"/>
<path transform="translate(1018,1517)" d="m0 0 56 1-2 2h-53z" fill="#FCFCFC"/>
<path transform="translate(446,1355)" d="m0 0 6 1 22 13 6 3-1 3-16-8-9-5-7-4z" fill="#9C9994"/>
<path transform="translate(542,1482)" d="m0 0h2l6 21 2 8v7l-2-2-1-9h-2l-6-19z" fill="#D4D4D3"/>
<path transform="translate(673,1465)" d="m0 0 29 2 5 1v1l-21 1-22-2-3-2z" fill="#DFDFDF"/>
<path transform="translate(1575,1311)" d="m0 0 2 2-21 12-12 7h-2v-2l6-5 23-13z" fill="#DADBDA"/>
<path transform="translate(868,1272)" d="m0 0 5 2 12 6 10 2 2 5-18-4-6-4z" fill="#6E6860"/>
<path transform="translate(878,1210)" d="m0 0 5 5 7 6 11 3h9l4-1 2-7h1v6l-3 4-5 1h-10l-11-4-5-4-5-6-7 7v-3z" fill="#635E55"/>
<path transform="translate(510,1354)" d="m0 0h2l2 13-3 7-2 4 1 12h2l-1 3-4-6-1-16-2-1 5-4 1-2z" fill="#EEE1D6"/>
<path transform="translate(407,1285)" d="m0 0 7 6 15 15-1 3-4-2-4-4v-2l-4-2-9-9z" fill="#DCDCDB"/>
<path transform="translate(1302,1262)" d="m0 0 6 3 5 6 19 19-3 1-11-11-3-2v-2l-4-2-10-10z" fill="#E4BF9F"/>
<path transform="translate(514,1241)" d="m0 0h2v50h-1l-1-13-1-7v-22z" fill="#C7BEB6"/>
<path transform="translate(349,1350)" d="m0 0 12 2 19 5 3 2-1 2-34-8z" fill="#DCDDDC"/>
<path transform="translate(1459,1426)" d="m0 0 1 2 1 4 10 17-1 3-2-2v-3l-3 1-8-14v-2l-8 1 2-3z" fill="#D9D9D8"/>
<path transform="translate(484,1401)" d="m0 0 2 4-5 3-27 6h-3l1-3 25-6 7-1z" fill="#E0E1E1"/>
<path transform="translate(1454,1460)" d="m0 0 2 1 7 26-1 4h-2l-6-20-1-8z" fill="#E3E4E4"/>
<path transform="translate(1360,1375)" d="m0 0 6 1 2-1 17 5 9 2-1 3-8-1-26-7z" fill="#CFCFCE"/>
<path transform="translate(1502,1372)" d="m0 0m-4 1 6 1v2l-15 4-12 2-2 3-1-7 2 1z" fill="#ddd"/>
<path transform="translate(1412,1311)" d="m0 0 2 3 7 27v7l-5-5 1-3-4-17-3-11z" fill="#CACAC8"/>
<path transform="translate(594,1345)" d="m0 0 3 1-5 4-25 15-5 2-1-2 9-6 14-8 6-3z" fill="#CDCCCB"/>
<path transform="translate(453,1552)" d="m0 0h16l1 2-2 2v-2l-24 2-10 3-4 3-4-2 1-2 10-3z" fill="#FDFDFD"/>
<path transform="translate(1574,1531)" d="m0 0 7 6 12 12v3l-5-2-16-16z" fill="#DAD9D7"/>
<path transform="translate(1084,329)" d="m0 0h8l6 2 2 3-3 1-4-1h-12l-6 3v-4l5-3z" fill="#353539"/>
<path transform="translate(1298,1429)" d="m0 0m-3 1 4 1v2l-22 6-4-1-2-2z" fill="#E5E6E6"/>
<path transform="translate(1465,1422)" d="m0 0 5 2 20 20h-3l-10-10-1 3-9-9-4-5z" fill="#F1F2F2"/>
<path transform="translate(689,1341)" d="m0 0h5l4 1h2v3l-26 7-4-1 5-3 13-3z" fill="#E1E1E1"/>
<path transform="translate(1313,1323)" d="m0 0 14 8 17 10-1 2-5-2-18-10-10-6z" fill="#D9D9D8"/>
<path transform="translate(1412,1428)" d="m0 0 5 2 2 2-5 5-9 15h-2l1-6 8-14v-3z" fill="#E0E1E0"/>
<path transform="translate(434,1441)" d="m0 0 2 1v3l-24 13-4-2 22-12z" fill="#CDCCCB"/>
<path transform="translate(445,1465)" d="m0 0h2v2h-2l1 3-16 16h-3l2-4 11-12 4-2z" fill="#DFE0DF"/>
<path transform="translate(384,1429)" d="m0 0 5 1v2l-26 7-3-1 3-3z" fill="#E3E4E4"/>
<path transform="translate(357,1237)" d="m0 0 4 2 10 9 11 11v2l-4-1-17-17z" fill="#AAA8A4"/>
<path transform="translate(792,1478)" d="m0 0 30 3h2v3l-26-2-15-2v-1z" fill="#A4A29D"/>
<path transform="translate(920,767)" d="m0 0h6l5 5 1 4-3 6-2 1h-9l-4-5v-6l3-4zm-1 2-3 2v7l2 3h8l4-3-1-6-2-3z" fill="#686056"/>
<path transform="translate(1358,1415)" d="m0 0h6l-2 2-32 8-3-1 3-3 7-2 14-2z" fill="#CFCFCD"/>
<path transform="translate(548,1452)" d="m0 0h13l8 1 1 2-3 1h-17l-13-2v-1z" fill="#797670"/>
<path transform="translate(1408,1496)" d="m0 0h1l-1 9-4 16h-3l-1-3 6-20z" fill="#B6B4B1"/>
<path transform="translate(494,1366)" d="m0 0 1 2-2 6v14l3 8 6 8 2 2-4-1-5-4-4-9-2-10 1-6z" fill="#E3B186"/>
<path transform="translate(1338,1491)" d="m0 0v3l-21 21-2-1 3-4 6-7 9-9z" fill="#C0BFBC"/>
<path transform="translate(1387,1479)" d="m0 0 1 2-10 17-4 4-1-4 9-15z" fill="#B6B4B1"/>
<path transform="translate(1545,1200)" d="m0 0h2l-1 5-8 13-7 7 1-5 11-18z" fill="#B2B1AF"/>
<path transform="translate(447,1412)" d="m0 0h4v3l-12 4-10 1-2-2z" fill="#C6C5C3"/>
<path transform="translate(536,1307)" d="m0 0 2 3-2 9-5 21h-3l4-17z" fill="#DAD9D6"/>
<path transform="translate(1e3 1264)" d="m0 0h3l-1 4-2 1-4 7-5 8-5 10-3 3 1-5 8-15 5-9z" fill="#2E3E4A"/>
<path transform="translate(1503,1508)" d="m0 0 4 5 10 18 2 6-4-4-5-9-3-3-5-9z" fill="#A5A29E"/>
<path transform="translate(1043,344)" d="m0 0h1l-1 10-3 10-3-1-6-12-3-4 4 1 6 10 3-8z" fill="#7D6053"/>
<path transform="translate(571,1422)" d="m0 0 6 2v2l10 6 18 11-2 1-25-14-8-5z" fill="#E7E8E8"/>
<path transform="translate(489,1424)" d="m0 0h11l1 3h2l-1 6-6 7-1-3 4-4h-3v2l-2-1 2-4v-4l-7-1z" fill="#A3A19C"/>
<path transform="translate(1343,1342)" d="m0 0 5 1 17 10 3 2-1 3-18-10-6-4z" fill="#9B9993"/>
<path transform="translate(508,1426)" d="m0 0 2 3-1 8-3 11h-10v-1l6-1z" fill="#E9EAEA"/>
<path transform="translate(1489,1446)" d="m0 0 4 1 28 28-1 2-2-1v-2l-4-2-2-4h-2l-7-8-5-4-7-8z" fill="#F0F0F0"/>
<path transform="translate(388,1321)" d="m0 0 6 2 16 10-2 3-19-11z" fill="#E9EAEA"/>
<path transform="translate(445,1273)" d="m0 0 3 1 11 20 4 7-1 2-8-13-3-3-6-11z" fill="#8A8985"/>
<path transform="translate(1132,335)" d="m0 0 4 1 1-1 9 1 6 2 1-3v5l-5 1-3-1-12-1z" fill="#786054"/>
<path transform="translate(391,1567)" d="m0 0h3v2l-5 1v6l5 2 3 2-1 2-10-6-5-4 1-3z" fill="#FCFCFC"/>
<path transform="translate(1258,1494)" d="m0 0h4l-1 3-16 9-5 1 1-3z" fill="#989692"/>
<path transform="translate(613,1460)" d="m0 0 29 1v2l-2 1h-14l-12-2z" fill="#7A7670"/>
<path transform="translate(1360,1436)" d="m0 0 2 1-4 5-16 9-1-3 10-7z" fill="#D1D1CF"/>
<path transform="translate(1536,1218)" d="m0 0 1 2-12 20-3 3-1-4 9-15h2z" fill="#D8D8D7"/>
<path transform="translate(1143,290)" d="m0 0 10 2 17 7 3 3-7-2-4-1-12-4-7-3z" fill="#31404C"/>
<path transform="translate(1314,1462)" d="m0 0 4 1-3 3-14 8h-5v-2l14-8z" fill="#C5C3C1"/>
<path transform="translate(580,1456)" d="m0 0h12l14 2v1h-17l-2-1v4l-5-2-7-2v-1z" fill="#78756F"/>
<path transform="translate(458,1452)" d="m0 0h3l-1 4h-2l-2 4h-2l-2 4-5 5h-2v-2h2l1-5z" fill="#BEBDBA"/>
<path transform="translate(575,1425)" d="m0 0 5 1 16 9 13 8-1 2-11-6-10-6-12-7z" fill="#908D87"/>
<path transform="translate(466,1348)" d="m0 0 5 1 5 4 7 8 1 2-2 4-3-5-3-3v-2l-4-2z" fill="#DFE0DF"/>
<path transform="translate(1626,1281)" d="m0 0h2l-1 3-20 12-2-1 4-4 5-4z" fill="#CCCCCA"/>
<path transform="translate(691,1525)" d="m0 0h9l-6 8-3 2-2-5-5-4z" fill="#FCFCFC"/>
<path transform="translate(1494,1426)" d="m0 0 5 1 14 8v2l-4 1-10-6z" fill="#CFCFCD"/>
<path transform="translate(615,1335)" d="m0 0 3 1-6 4 4 1-1 3-13 1v-2l3-1-1-2 5-3z" fill="#CBCBC9"/>
<path transform="translate(1610,1493)" d="m0 0 10 5 8 6v2l-5-1-14-9z" fill="#D7D6D4"/>
<path transform="translate(456,1378)" d="m0 0 17 4 7 3v2l-18-4-7-2z" fill="#DEDDDC"/>
<path transform="translate(1566,1355)" d="m0 0 2 1-3 4-12 3-5-1-2-2z" fill="#E4E5E4"/>
<path transform="translate(662,1306)" d="m0 0 2 1-7 6-16 9-2-1 4-4z" fill="#989591"/>
<path transform="translate(1509,1523)" d="m0 0 4 4 5 9 4 4 2 6-1 4-3-4-7-14-4-7z" fill="#EAEAEA"/>
<path transform="translate(681,1295)" d="m0 0 2 1-5 5-16 9-2-1 7-6z" fill="#B8B6B3"/>
<path transform="translate(543,1284)" d="m0 0 1 2-2 13-3 10-2 1v-7l5-18z" fill="#B5B4B0"/>
<path transform="translate(1462,1489)" d="m0 0 2 2 4 16-1 3-3-2-3-13z" fill="#C8C8C6"/>
<path transform="translate(496,1325)" d="m0 0h2l5 19-3 2-5-17z" fill="#D6D4D2"/>
<path transform="translate(529,1422)" d="m0 0h5l-4 2 1 8v10l-2-2-4-16h-5v-1h7z" fill="#C7C6C4"/>
<path transform="translate(1217,1335)" d="m0 0 8 1 12 3v2l-6 1-13-4z" fill="#D7D7D6"/>
<path transform="translate(1544,1327)" d="m0 0 2 1-4 2-1 4-10 5-4-2zm-19 11h2v2l-3-1z" fill="#BBBAB7"/>
<path transform="translate(983,294)" d="m0 0h7l4 5 1 4-1 5h-2l-2-10-1-1h-8l-1 3h-2l2-4z" fill="#666057"/>
<path transform="translate(582,1408)" d="m0 0 15 3 2 1v3l2 1-10-2-8-2z" fill="#C6C6C4"/>
<path transform="translate(1139,332)" d="m0 0 13 2v4l-9-2h-6-4l1-3z" fill="#353539"/>
<path transform="translate(553,1456)" d="m0 0 4 1 5 7 3 6-2 4-7-11z" fill="#E0E1E1"/>
<path transform="translate(1476,1433)" d="m0 0 7 6 5 5 3 2h-2l3 5-4-2-11-11z" fill="#AAA8A5"/>
<path transform="translate(1267,1437)" d="m0 0h7l-2 3-13 4-4-1 5-4z" fill="#D0D0CE"/>
<path transform="translate(1406,1289)" d="m0 0 2 2 4 16v5h-2l-4-15-1-7z" fill="#C6C5C3"/>
<path transform="translate(1080,1041)" d="m0 0h9v1l-5 1-30 1v7l-2-1-1-8z" fill="#666057"/>
<path transform="translate(310,1449)" d="m0 0h9v2l-16 4-4-1v-2z" fill="#BEBCB9"/>
<path transform="translate(518,1421)" d="m0 0h17l-1 2h-7l-1 2v-2l-6 1-1 22h-1z" fill="#666057"/>
<path transform="translate(1346,1370)" d="m0 0 11 2 9 3 1 2-11-1-12-4z" fill="#B2B0AC"/>
<path transform="translate(1431,1352)" d="m0 0 15 1 1 2-18 1-7 1 5-4z" fill="#444242"/>
<path transform="translate(336,1290)" d="m0 0 14 7-2 4-13-7z" fill="#D8D8D6"/>
<path transform="translate(1566,1559)" d="m0 0 16 2-5 5-5 3 2-5-2-2-7-1z" fill="#FBFBFB"/>
<path transform="translate(337,1497)" d="m0 0 2 1 1 2-14 8h-3l1-3z" fill="#D8D8D7"/>
<path transform="translate(525,1350)" d="m0 0 7 1v1h-8l2 11 7 6v2l-5-2-4-3-2-10 1-5z" fill="#E3C6AD"/>
<path transform="translate(1481,1308)" d="m0 0 1 3-1 5-6 10-2-3 2-5z" fill="#C2C1BF"/>
<path transform="translate(1392,1236)" d="m0 0 2 2 5 19-1 3-3-4-4-16z" fill="#B9B4AE"/>
<path transform="translate(453,1289)" d="m0 0 4 4 5 9h2l5 9-1 3-1-3-3-1-9-16z" fill="#CECDCC"/>
<path transform="translate(459,1496)" d="m0 0 1 3-6 11-5 2 7-14z" fill="#939492"/>
<path transform="translate(1451,1360)" d="m0 0 4 1 3 1h4l2 2v2l4 4v2l-5-2-7-6z" fill="#93908A"/>
<path transform="translate(1510,1314)" d="m0 0m-1 1m-1 1m-1 1m-1 1m-1 1m-1 1m-1 1m-1 1m-1 1m-1 1m-1 1m-1 1m-1 1m-1 1m-1 1m-1 1m-1 1m-1 1m-1 1m-1 1m-1 1m-1 1m-1 1m-1 1m-1 1m-1 1m-1 1m-1 1m-1 1m-1 1m-1 1m-1 1m-1 1m-1 1m-1 1m-1 1m-1 1m-1 1m-1 1m-2 1 2 1-3 4-3-1z" fill="#E8E8E8"/>
<path transform="translate(491,1489)" d="m0 0 2 8-2 8-2 1-2 4v-7z" fill="#B1B0AC"/>
<path transform="translate(897,1455)" d="m0 0 1 3-5 3-5 5-8 5v-3l11-9z" fill="#2E3E4A"/>
<path transform="translate(1636,1446)" d="m0 0 13 3 2 3-2 1-16-4v-2z" fill="#E3E4E4"/>
<path transform="translate(512,1422)" d="m0 0h6l1 26-1 1h-9v-1h8l-1-24h-4z" fill="#E9EAEA"/>
<path transform="translate(374,939)" d="m0 0h5l-2 2-20 7h-4v-2z" fill="#E7E7E7"/>
<path transform="translate(1049,319)" d="m0 0 1 4-5 22-2-1 1-8 4-16z" fill="#706055"/>
<path transform="translate(1393,1465)" d="m0 0 1 3-4 10-5 2-1 3-1-2 9-15z" fill="#888682"/>
<path transform="translate(1569,1468)" d="m0 0 14 8 6 4-1 2-4-3-7-1-1-4-7-4z" fill="#F5F5F5"/>
<path transform="translate(630,1456)" d="m0 0 10 4-4 2-12-1 1-3z" fill="#E2E2E2"/>
<path transform="translate(1382,1364)" d="m0 0 6 2 11 6-2 4-1-2-6-2-5-5z" fill="#E6E6E6"/>
<path transform="translate(465,1483)" d="m0 0 2 4-6 11h-3v-3z" fill="#C7C6C4"/>
<path transform="translate(1294,1473)" d="m0 0 5 1-5 4-9 5-2-1 1-3z" fill="#D2D2D0"/>
<path transform="translate(361,1435)" d="m0 0h2l-1 3-13 5-2-1v-3z" fill="#C5C5C3"/>
<path transform="translate(471,1410)" d="m0 0 7 2v1h-7l1 9 1 2-7 2 3-5-1-8z" fill="#E3E4E4"/>
<path transform="translate(575,1374)" d="m0 0 8 1-4 2-10 3-5-1 1-2z" fill="#E0E1E1"/>
<path transform="translate(1595,1348)" d="m0 0 5 1v2l-11 3h-3l1-4z" fill="#E5E6E6"/>
<path transform="translate(484,1339)" d="m0 0 4 5 3 6 2 2-3 2-6-8-2-5h2z" fill="#DEDFDF"/>
<path transform="translate(458,1337)" d="m0 0 4 2 7 8-4 1-7-7z" fill="#CCCCCA"/>
<path transform="translate(1474,1244)" d="m0 0 2 1-4 14-4-2 4-11z" fill="#E9EAEA"/>
<path transform="translate(999,365)" d="m0 0 3 1 2 7v7l-2 6-2 1 1-12z" fill="#806052"/>
<path transform="translate(1472,1410)" d="m0 0 8 6 2 1v3l-6-1-5-5z" fill="#DFE0E0"/>
<path transform="translate(480,1385)" d="m0 0 2 2 5 15 4 6-1 3-8-14-2-8z" fill="#706A61"/>
<path transform="translate(576,1356)" d="m0 0 2 1-4 4-12 6-1-2 9-6z" fill="#A7A4A0"/>
<path transform="translate(1468,1258)" d="m0 0h3l-1 8-4 8h-1l1-10z" fill="#C1BFBC"/>
<path transform="translate(1085,349)" d="m0 0 2 4-2 5 1 7 4 2-5-1-3-5v-6z" fill="#7A6053"/>
<path transform="translate(452,1510)" d="m0 0v3l-5 10-5 2 2-5 4-8z" fill="#C2C1BF"/>
<path transform="translate(371,1478)" d="m0 0 3 1-4 4-7 4-4-1 3-3z" fill="#A4A29E"/>
<path transform="translate(447,1434)" d="m0 0h2v3l-12 7-3-1 6-5z" fill="#96938F"/>
<path transform="translate(1575,1430)" d="m0 0 8 1 6 2-1 3-11-2z" fill="#CECECC"/>
<path transform="translate(416,1368)" d="m0 0 9 1 8 2-3 3-15-4z" fill="#D9D9D8"/>
<path transform="translate(1645,1335)" d="m0 0h6l-2 3-8 2h-7v-2z" fill="#CDCDCC"/>
<path transform="translate(1371,1456)" d="m0 0m-1 1m-1 1 1 3-2 1-1 4-4 2-6 5-2-1z" fill="#EFEFEF"/>
<path transform="translate(1543,1361)" d="m0 0 7 1v2l-13 3-1-2 1-2z" fill="#DADAD9"/>
<path transform="translate(1462,1345)" d="m0 0v3l-5 8 2 3-5-2-2-2h2l1-4 4-4z" fill="#E1E1E1"/>
<path transform="translate(771,1475)" d="m0 0 21 3v1h-23l2-1z" fill="#87837D"/>
<path transform="translate(716,1445)" d="m0 0 10 2 7 2-1 3-15-4z" fill="#CFCFCD"/>
<path transform="translate(1462,1364)" d="m0 0 4 2 3 2 3 6v7l-2-1-3-6-1-5z" fill="#4B4A4A"/>
<path transform="translate(462,1363)" d="m0 0 5 2 10 6 3 1-1 3-11-5v-2l-6-4z" fill="#D9D9D8"/>
<path transform="translate(1420,1356)" d="m0 0h21v1l-15 1-8 3-4 2 1-4z" fill="#989692"/>
<path transform="translate(413,1588)" d="m0 0 3 1v2l6 2 13 7-1 2-16-8-5-3z" fill="#FDFDFD"/>
<path transform="translate(1465,1509)" d="m0 0 4 2v7l2 12-2-1-4-17z" fill="#EBEBEB"/>
<path transform="translate(1412,1428)" d="m0 0 5 2 2 2-4 4h-3l-2 5-1-4 4-7z" fill="#C5C4C2"/>
<path transform="translate(552,1408)" d="m0 0 1 2-1 3-5 3-3 3-7 2 1-3 6-4 6-2z" fill="#68635A"/>
<path transform="translate(1447,1343)" d="m0 0 1 4-1 6 3 1-12-1v-1h5l1-6z" fill="#E6E6E6"/>
<path transform="translate(1283,1306)" d="m0 0 6 2 8 5-1 3-5-2-5-3z" fill="#E8E9E9"/>
<path transform="translate(1080,328)" d="m0 0h15l5 2 2 5-4 1 1-3-2-2-5-1h-8l-6 1z" fill="#666057"/>
<path transform="translate(1522,1478)" d="m0 0 7 6 4 5h-4l-7-6z" fill="#D8D8D7"/>
<path transform="translate(484,1449)" d="m0 0 3 1-2 6-5 9-1-3 1-5z" fill="#CECECC"/>
<path transform="translate(591,1370)" d="m0 0 5 1-3 2-7 2h-8l1-2z" fill="#CACAC8"/>
<path transform="translate(1608,1291)" d="m0 0 2 1-8 7-4 2h-4v-2z" fill="#A19F9B"/>
<path transform="translate(572,1292)" d="m0 0 1 3-2 2-1 6-4 1-1-7z" fill="#E3C9B3"/>
<path transform="translate(486,1285)" d="m0 0 2 2 2 7v6h-2l-4-14z" fill="#C8C7C5"/>
<path transform="translate(546,1497)" d="m0 0 2 2 3 8 1 4v7l-2-2-1-9h-2l-1-7z" fill="#9E9B96"/>
<path transform="translate(1581,1478)" d="m0 0 4 1 3 2 2-1 3 2v2l2 1v2l-5-2-9-5z" fill="#DADADA"/>
<path transform="translate(325,1445)" d="m0 0 4 1v2l-6 2-10-1 4-2z" fill="#E1E1E1"/>
<path transform="translate(535,1421)" d="m0 0 4 4 4 8-1 3-5-6-3-7z" fill="#B4B3AF"/>
<path transform="translate(1140,352)" d="m0 0h1l2 10v2h-2l-1 3-2-7 1-6z" fill="#353539"/>
<path transform="translate(792,1478)" d="m0 0 11 1 1 3-14-1-7-1v-1z" fill="#DCDDDC"/>
<path transform="translate(1330,1366)" d="m0 0 11 2 5 2-3 2-13-3z" fill="#D9D9D8"/>
<path transform="translate(1511,1348)" d="m0 0 3 1-18 10-2-1 5-4 4-3 5-1z" fill="#E3E4E4"/>
<path transform="translate(1272,1299)" d="m0 0 10 5 5 6-5-1-6-4-4-4z" fill="#ADAAA6"/>
<path transform="translate(348,1298)" d="m0 0 5 1 8 7-3 1-9-5z" fill="#C1C0BD"/>
<path transform="translate(1389,1221)" d="m0 0 2 4 2 11h-3l-3-14z" fill="#DADAD9"/>
<path transform="translate(483,1519)" d="m0 0h2l-2 13-3 4-1-3 3-13z" fill="#97948E"/>
<path transform="translate(677,1434)" d="m0 0 10 2 8 2v1h-9l-9-2z" fill="#C6C5C3"/>
<path transform="translate(552,1410)" d="m0 0 9 5-1 2 3 3-6-2-6-4z" fill="#E3E3E3"/>
<path transform="translate(1316,1363)" d="m0 0h7l9 4v1l-10-1-6-3z" fill="#B3B1AE"/>
<path transform="translate(546,1272)" d="m0 0m-1 2 2 4-2 10-2 3v-6l-1-2z" fill="#E5E6E6"/>
<path transform="translate(1291,1249)" d="m0 0 7 6 8 8h-3l-4-1-2-5-6-6z" fill="#E6E4E2"/>
<path transform="translate(1019,455)" d="m0 0 4 2 10 8 6 5h-3l-9-7-8-7z" fill="#816052"/>
<path transform="translate(1255,1440)" d="m0 0 3 1-2 4-8 1v-2l-3-1z" fill="#E8E9E9"/>
<path transform="translate(571,1422)" d="m0 0 6 2v2l6 4-1 2-12-7z" fill="#EAEAEA"/>
<path transform="translate(544,1418)" d="m0 0 3 1 5 6-1 3-7-6-4-3z" fill="#DADAD9"/>
<path transform="translate(623,1361)" d="m0 0 6 1-1 2-11 3-3-1 1-2z" fill="#C1C0BD"/>
<path transform="translate(437,1349)" d="m0 0 6 2 5 4-1 2-5-2-6-3z" fill="#C8C7C5"/>
<path transform="translate(1396,1257)" d="m0 0 4 3 2 10-2 3-4-13z" fill="#DDDEDD"/>
<path transform="translate(1521,1240)" d="m0 0h1v5l-4 7-4 1 2-5z" fill="#ACA8A1"/>
<path transform="translate(1275,1235)" d="m0 0 4 2 5 4v2h2l-1 4-5-4-5-7z" fill="#D4D4D3"/>
<path transform="translate(1092,348)" d="m0 0 1 3v3l3 2v7l-3 3-3-1 3-2 2-6-5-1-1-3z" fill="#666057"/>
<path transform="translate(1483,1473)" d="m0 0 3 3 1 5 4 7-1 3-9-15 2-1z" fill="#E1E2E2"/>
<path transform="translate(507,1436)" d="m0 0h1l-1 10-1 2h-10v-1l6-1 3-4z" fill="#C7C6C4"/>
<path transform="translate(599,1412)" d="m0 0 11 3v2l-6 1-3-1v-2h-2z" fill="#E7E8E8"/>
<path transform="translate(1466,1336)" d="m0 0 1 4-3 5-5 3 1-5 3-5z" fill="#908C86"/>
<path transform="translate(452,1330)" d="m0 0 7 6-2 4-8-8z" fill="#E3E4E4"/>
<path transform="translate(1332,1529)" d="m0 0 17 1-4 2h-12l-2-2z" fill="#FDFDFD"/>
<path transform="translate(732,1473)" d="m0 0h15l-1 3-13-1z" fill="#A9A7A3"/>
<path transform="translate(1565,1468)" d="m0 0h4l3 3 5 3-1 2-5-2-7-4z" fill="#ddd"/>
<path transform="translate(1237,1340)" d="m0 0 9 2v3l-2 1-9-3v-2z" fill="#E7E8E8"/>
<path transform="translate(444,1323)" d="m0 0 4 2 4 4-1 3-5-3-3-5z" fill="#C6C5C3"/>
<path transform="translate(1552,1323)" d="m0 0 2 1v2l-10 6h-2v-2l6-5z" fill="#E8E9E9"/>
<path transform="translate(536,1307)" d="m0 0 2 3-2 9-1 4h-2l1-9z" fill="#E3E4E4"/>
<path transform="translate(399,1279)" d="m0 0 4 1 4 4v5l-3-2v-2l-4-2-2-3z" fill="#E8E8E8"/>
<path transform="translate(1467,1270)" d="m0 0 1 3-2 8h-3l-1 2 1-7 1-5 2 1z" fill="#E3E4E4"/>
<path transform="translate(547,1507)" d="m0 0h2l2 9 2-1 1 6-1 3h-2z" fill="#E3E4E4"/>
<path transform="translate(1343,1484)" d="m0 0 2 2-3 5-5 2h-3z" fill="#D6D5D3"/>
<path transform="translate(560,1401)" d="m0 0 10 5-2 2-11-3z" fill="#DCDCDC"/>
<path transform="translate(636,1358)" d="m0 0h3l-1 3-9 2-4-2z" fill="#E3E4E4"/>
<path transform="translate(1331,1334)" d="m0 0 11 6 2 2h-4l-11-6z" fill="#E3E4E4"/>
<path transform="translate(1260,1295)" d="m0 0 10 2 2 1v3l4 2-2 1-14-8z" fill="#EEEFEF"/>
<path transform="translate(1508,1463)" d="m0 0 7 6 6 6-1 2-2-1v-2l-4-2-2-4h-2z" fill="#F4F4F4"/>
<path transform="translate(508,1419)" d="m0 0 10 2v1h-6l-1 7h-2z" fill="#848079"/>
<path transform="translate(1295,1357)" d="m0 0h7l5 2 1 3-10-2z" fill="#C5C4C2"/>
<path transform="translate(422,1300)" d="m0 0 7 6-1 3-4-2-3-3z" fill="#CBCBC9"/>
<path transform="translate(392,1271)" d="m0 0 4 2 5 5-1 3-3-1-5-6z" fill="#CBCBC9"/>
<path transform="translate(1251,1498)" d="m0 0 2 1-4 4-4 3-5 1 1-3z" fill="#B1AFAC"/>
<path transform="translate(495,1482)" d="m0 0 1 3-3 9-2-1 1-10z" fill="#E7E7E7"/>
<path transform="translate(1464,1440)" d="m0 0 4 4 3 5-1 3-2-2v-3l-3 1-2-5z" fill="#A4A29D"/>
<path transform="translate(434,1441)" d="m0 0 2 1v3l-10 4-3 1 1-3z" fill="#B8B7B4"/>
<path transform="translate(1282,1433)" d="m0 0m-4 1h4v2h-2v2l-7 1-2-3z" fill="#DDDEDD"/>
<path transform="translate(1418,1366)" d="m0 0 2 1-10 10-3 4 1-5 7-8z" fill="#C3C3C0"/>
<path transform="translate(706,1281)" d="m0 0 3 1-11 7-3-1 3-3z" fill="#A4A29D"/>
<path transform="translate(475,1247)" d="m0 0 2 2 4 12-1 3-2-1-3-13z" fill="#E0E1E1"/>
<path transform="translate(1485,1478)" d="m0 0h2l6 10v5h-2l-2-6-4-7z" fill="#8E8A84"/>
<path transform="translate(1510,1468)" d="m0 0h2l4 5 2 1v2l4 1 1 4-4-2-9-9z" fill="#96938D"/>
<path transform="translate(613,1460)" d="m0 0 14 1 3 2h-13l-4-2z" fill="#676462"/>
<path transform="translate(1329,1421)" d="m0 0m-4 1 4 1-3 3-8 1-1-3z" fill="#E5E6E6"/>
<path transform="translate(1476,1366)" d="m0 0 3 1v2l-8 5-2-5h3z" fill="#DEDFDF"/>
<path transform="translate(1049,1283)" d="m0 0 1 3-8 7h-2v-2l5-5z" fill="#3E3D3E"/>
<path transform="translate(1576,1127)" d="m0 0 8 6 1 6-7-2v-1h5l-3-3v-2l-4-2z" fill="#E3B48C"/>
<path transform="translate(1077,329)" d="m0 0 2 1-4 4 2 5-5-1v-5z" fill="#706055"/>
<path transform="translate(471,1475)" d="m0 0 1 3-4 7h-2l1-6z" fill="#B9B8B5"/>
<path transform="translate(1314,1462)" d="m0 0 4 1-3 3-7 4-4-1 7-4h2z" fill="#85827E"/>
<path transform="translate(1539,1452)" d="m0 0 5 1 5 3-1 3-6-2-1-4z" fill="#BAB8B5"/>
<path transform="translate(1341,1447)" d="m0 0m-2 1h2l-1 4-10 3v-2z" fill="#B9B8B5"/>
<path transform="translate(1465,1422)" d="m0 0 5 2 3 3-1 3-9-6z" fill="#D2D2D1"/>
<path transform="translate(1358,1415)" d="m0 0h6l-2 2-7 2h-9v-1z" fill="#79746D"/>
<path transform="translate(1343,1342)" d="m0 0 5 1 6 4-1 2-5-2-5-3z" fill="#A7A5A2"/>
<path transform="translate(460,913)" d="m0 0m-4 1 4 1-5 4-6-1 1-2z" fill="#E9E9E9"/>
<path transform="translate(979,399)" d="m0 0 6 4 6-1v2l-5 2-5-1-2-2z" fill="#6A645B"/>
<path transform="translate(1585,1543)" d="m0 0 4 2 4 4v3l-5-2-3-5z" fill="#B7B6B3"/>
<path transform="translate(1409,1484)" d="m0 0 2 1-2 7h2l-1 5-4 1z" fill="#E7E8E8"/>
<path transform="translate(1549,1457)" d="m0 0 5 2 4 2v2l-6-2-2 1-5-4z" fill="#ECEDED"/>
<path transform="translate(1374,1454)" d="m0 0h2l-1 4-6 6h-2l1-3h2l1-4 3-1z" fill="#C0BFBD"/>
<path transform="translate(336,1442)" d="m0 0h2v2h-2v2l-7 1-1-3z" fill="#BEBCB9"/>
<path transform="translate(1517,1343)" d="m0 0 2 1-5 4-8 4h-2v-2z" fill="#827E78"/>
<path transform="translate(1603,1346)" d="m0 0h7l-2 3-8 2-1-4z" fill="#BCBBB8"/>
<path transform="translate(592,1314)" d="m0 0 1 3-8 7h-2l2-5 6-4z" fill="#E3BD9C"/>
<path transform="translate(1412,1311)" d="m0 0 2 3 1 7-2 2-3-11z" fill="#E3E4E4"/>
<path transform="translate(355,1301)" d="m0 0 5 2 6 4 1 4-5-2-2-2z" fill="#EBEBEB"/>
<path transform="translate(1141,347)" d="m0 0 3 1v5l-4 1-2 3 1-7z" fill="#6D5D53"/>
<path transform="translate(1353,1474)" d="m0 0v3l-6 6v3l-3 2v-5z" fill="#EFEFEF"/>
<path transform="translate(489,1424)" d="m0 0h11l1 4-4 2-1-4-7-1z" fill="#E3E4E4"/>
<path transform="translate(493,1395)" d="m0 0 3 1 6 8 2 2-4-1-5-4-2-5z" fill="#E3B690"/>
<path transform="translate(1473,1384)" d="m0 0h1l1 14-1 5h-2z" fill="#353539"/>
<path transform="translate(388,1321)" d="m0 0 6 2 4 4-3 1-6-3z" fill="#E2E2E2"/>
<path transform="translate(555,1242)" d="m0 0 1 2-3 13-3-1 4-13z" fill="#E6E7E7"/>
<path transform="translate(1375,1178)" d="m0 0 3 1 2 5-1 5-2-2z" fill="#D2D2D0"/>
<path transform="translate(371,1540)" d="m0 0 2 1h-3zm-2 2m-1 1m-1 1m-1 1m-1 1v3l-2 4-4 1 2-4z" fill="#E6E6E6"/>
<path transform="translate(1338,1491)" d="m0 0v3l-8 8v-3l3-5z" fill="#B8B7B4"/>
<path transform="translate(1282,1480)" d="m0 0 3 1-5 5h-5v-2z" fill="#B2B1AD"/>
<path transform="translate(377,1474)" d="m0 0h6l-3 3-5 3-2-1-1-2z" fill="#E1E1E0"/>
<path transform="translate(673,1465)" d="m0 0 2 4-11-1-3-2z" fill="#E3E4E4"/>
<path transform="translate(540,1433)" d="m0 0 4 1 3 5-1 3-3-1-3-6z" fill="#D1D1D0"/>
<path transform="translate(1313,1425)" d="m0 0h7l-2 1v2l-5 1-5-1 1-2z" fill="#C7C6C4"/>
<path transform="translate(679,1347)" d="m0 0h2v3l-7 2-4-1 5-3z" fill="#DEDFDE"/>
<path transform="translate(1419,1337)" d="m0 0 2 4v7l-5-5 1-4h2z" fill="#E3D1C1"/>
<path transform="translate(1481,1308)" d="m0 0 1 3-1 5-3 3-1-5z" fill="#BEBDBB"/>
<path transform="translate(1087,347)" d="m0 0h5l-1 4-1 2-4-2z" fill="#3F3F41"/>
<path transform="translate(1028,347)" d="m0 0 4 1 5 8-1 4-5-9z" fill="#9F604E"/>
<path transform="translate(1363,1518)" d="m0 0 1 4-2 1-2 5h-2l1-6z" fill="#918D87"/>
<path transform="translate(567,1480)" d="m0 0 3 1 2 2 3 4 1 5-4-5-5-5z" fill="#C8C7C5"/>
<path transform="translate(1476,1401)" d="m0 0 6 3 1 3-6-1-2-1z" fill="#E5E5E5"/>
<path transform="translate(432,1372)" d="m0 0 8 1 1 3-8-1-2-2z" fill="#BCBBB8"/>
<path transform="translate(1377,1361)" d="m0 0 5 2 7 7-6-2-6-5z" fill="#96928D"/>
<path transform="translate(446,1355)" d="m0 0 6 1 3 2-1 3-7-3z" fill="#9E9C97"/>
<path transform="translate(407,1285)" d="m0 0 6 5-1 3-4-2-1-1z" fill="#C3C2BF"/>
</svg>
